<?xml version="1.0" encoding="UTF-8"?>
<!DOCTYPE svg PUBLIC "-//W3C//DTD SVG 1.1//EN" "http://www.w3.org/Graphics/SVG/1.1/DTD/svg11.dtd">
<!-- Creator: CorelDRAW -->
<svg xmlns="http://www.w3.org/2000/svg" xml:space="preserve" width="512px" height="512px" version="1.1" style="shape-rendering:geometricPrecision; text-rendering:geometricPrecision; image-rendering:optimizeQuality; fill-rule:evenodd; clip-rule:evenodd"
viewBox="0 0 512 512"
 xmlns:xlink="http://www.w3.org/1999/xlink">
 <defs>
  <style type="text/css">
   <![CDATA[
    .fil0 {fill:black}
   ]]>
  </style>
 </defs>
 <g id="Layer_x0020_1">
  <metadata id="CorelCorpID_0Corel-Layer"/>
  <g id="_523955768">
   <g>
    <g id="_523965992">
     <path class="fil0" d="M451 477l-254 0c-1,0 -3,0 -4,-1l-98 -68c-2,-1 -3,-4 -3,-6l0 -395c0,-4 3,-7 7,-7l352 0c4,0 7,3 7,7l0 463c0,4 -3,7 -7,7zm-252 -14l245 0 0 -449 -338 0 0 384 93 65z"/>
    </g>
    <g id="_523965176">
     <path class="fil0" d="M197 477c-4,0 -7,-3 -7,-7l0 -61 -91 0c-4,0 -7,-3 -7,-7 0,-4 3,-7 7,-7l98 0c4,0 7,3 7,7l0 68c0,4 -3,7 -7,7z"/>
    </g>
    <g>
     <g id="_523960712">
      <path class="fil0" d="M218 373l-84 0c-4,0 -7,-3 -7,-7l0 -84c0,-4 3,-7 7,-7l84 0c4,0 7,3 7,7l0 84c0,4 -3,7 -7,7zm-77 -14l70 0 0 -70 -70 0 0 70z"/>
     </g>
     <g>
      <g id="_523974680">
       <path class="fil0" d="M416 69l-178 0c-4,0 -7,-3 -7,-7 0,-4 3,-7 7,-7l178 0c4,0 7,3 7,7 0,4 -3,7 -7,7z"/>
      </g>
      <g id="_523959800">
       <path class="fil0" d="M416 105l-178 0c-4,0 -7,-4 -7,-7 0,-4 3,-7 7,-7l178 0c4,0 7,3 7,7 0,3 -3,7 -7,7z"/>
      </g>
     </g>
     <g>
      <g id="_523964072">
       <path class="fil0" d="M416 191l-178 0c-4,0 -7,-3 -7,-7 0,-4 3,-7 7,-7l178 0c4,0 7,3 7,7 0,4 -3,7 -7,7z"/>
      </g>
      <g id="_523966016">
       <path class="fil0" d="M416 226l-178 0c-4,0 -7,-3 -7,-7 0,-3 3,-7 7,-7l178 0c4,0 7,4 7,7 0,4 -3,7 -7,7z"/>
      </g>
     </g>
     <g>
      <g id="_523960544">
       <path class="fil0" d="M416 313l-178 0c-4,0 -7,-3 -7,-7 0,-4 3,-7 7,-7l178 0c4,0 7,3 7,7 0,4 -3,7 -7,7z"/>
      </g>
      <g id="_523972328">
       <path class="fil0" d="M416 348l-178 0c-4,0 -7,-3 -7,-7 0,-3 3,-7 7,-7l178 0c4,0 7,4 7,7 0,4 -3,7 -7,7z"/>
      </g>
     </g>
     <g>
      <g id="_523970120">
       <path class="fil0" d="M158 349c-2,0 -4,-1 -5,-2 -3,-3 -3,-7 0,-10l36 -36c3,-3 7,-3 10,0 2,2 2,7 0,10l-36 36c-2,1 -4,2 -5,2z"/>
      </g>
      <g id="_523987160">
       <path class="fil0" d="M194 349c-2,0 -4,-1 -5,-2l-36 -36c-3,-3 -3,-8 0,-10 2,-3 7,-3 10,0l36 36c2,3 2,7 0,10 -2,1 -3,2 -5,2z"/>
      </g>
     </g>
     <g id="_523968752">
      <path class="fil0" d="M218 251l-84 0c-4,0 -7,-3 -7,-7l0 -84c0,-4 3,-7 7,-7l84 0c4,0 7,3 7,7l0 84c0,4 -3,7 -7,7zm-77 -14l70 0 0 -70 -70 0 0 70z"/>
     </g>
     <g id="_523958480">
      <path class="fil0" d="M218 129l-84 0c-4,0 -7,-3 -7,-7l0 -84c0,-4 3,-7 7,-7l84 0c4,0 7,3 7,7l0 84c0,4 -3,7 -7,7zm-77 -14l70 0 0 -70 -70 0 0 70z"/>
     </g>
     <g id="_523983656">
      <path class="fil0" d="M155 110c0,0 -1,0 -1,0 -3,-1 -5,-3 -5,-5l-7 -23c-1,-4 2,-8 5,-9 4,-1 8,1 9,5l3 12 38 -38c3,-3 7,-3 10,0 3,2 3,7 0,9l-47 47c-1,2 -3,2 -5,2z"/>
     </g>
     <g id="_523974608">
      <path class="fil0" d="M155 232c0,0 -1,0 -1,0 -3,-1 -5,-3 -5,-5l-7 -23c-1,-4 2,-8 5,-9 4,-1 8,1 9,5l3 12 38 -39c3,-2 7,-2 10,0 3,3 3,8 0,10l-47 47c-1,1 -3,2 -5,2z"/>
     </g>
    </g>
    <g id="_523985792">
     <path class="fil0" d="M451 512l-390 0c-4,0 -7,-3 -7,-7l0 -460c0,-4 3,-7 7,-7l38 0c4,0 7,3 7,7 0,4 -3,7 -7,7l-31 0 0 446 376 0 0 -28c0,-4 3,-7 7,-7 4,0 7,3 7,7l0 35c0,4 -3,7 -7,7z"/>
    </g>
   </g>
  </g>
 </g>
</svg>
