<svg class="animated" id="freepik_stories-treasure-hunt" xmlns="http://www.w3.org/2000/svg" viewBox="0 0 500 500" version="1.1" xmlns:xlink="http://www.w3.org/1999/xlink" xmlns:svgjs="http://svgjs.com/svgjs"><style>svg#freepik_stories-treasure-hunt:not(.animated) .animable {opacity: 0;}svg#freepik_stories-treasure-hunt.animated #freepik--background-simple--inject-150 {animation: 1s 1 forwards cubic-bezier(.36,-0.01,.5,1.38) zoomOut;animation-delay: 0s;}svg#freepik_stories-treasure-hunt.animated #freepik--Shadow--inject-150 {animation: 1s 1 forwards cubic-bezier(.36,-0.01,.5,1.38) slideRight;animation-delay: 0s;}svg#freepik_stories-treasure-hunt.animated #freepik--Plant--inject-150 {animation: 1s 1 forwards cubic-bezier(.36,-0.01,.5,1.38) lightSpeedRight;animation-delay: 0s;}svg#freepik_stories-treasure-hunt.animated #freepik--Rocks--inject-150 {animation: 1s 1 forwards cubic-bezier(.36,-0.01,.5,1.38) slideLeft,1.5s Infinite  linear wind;animation-delay: 0s,1s;}svg#freepik_stories-treasure-hunt.animated #freepik--Treasure--inject-150 {animation: 1s 1 forwards cubic-bezier(.36,-0.01,.5,1.38) slideDown;animation-delay: 0s;}svg#freepik_stories-treasure-hunt.animated #freepik--character-2--inject-150 {animation: 1s 1 forwards cubic-bezier(.36,-0.01,.5,1.38) fadeIn;animation-delay: 0s;}svg#freepik_stories-treasure-hunt.animated #freepik--character-1--inject-150 {animation: 1s 1 forwards cubic-bezier(.36,-0.01,.5,1.38) fadeIn;animation-delay: 0s;}            @keyframes zoomOut {                0% {                    opacity: 0;                    transform: scale(1.5);                }                100% {                    opacity: 1;                    transform: scale(1);                }            }                    @keyframes slideRight {                0% {                    opacity: 0;                    transform: translateX(30px);                }                100% {                    opacity: 1;                    transform: translateX(0);                }            }                    @keyframes lightSpeedRight {              from {                transform: translate3d(50%, 0, 0) skewX(-20deg);                opacity: 0;              }              60% {                transform: skewX(10deg);                opacity: 1;              }              80% {                transform: skewX(-2deg);              }              to {                opacity: 1;                transform: translate3d(0, 0, 0);              }            }                    @keyframes slideLeft {                0% {                    opacity: 0;                    transform: translateX(-30px);                }                100% {                    opacity: 1;                    transform: translateX(0);                }            }                    @keyframes wind {                0% {                    transform: rotate( 0deg );                }                25% {                    transform: rotate( 1deg );                }                75% {                    transform: rotate( -1deg );                }            }                    @keyframes slideDown {                0% {                    opacity: 0;                    transform: translateY(-30px);                }                100% {                    opacity: 1;                    transform: translateY(0);                }            }                    @keyframes fadeIn {                0% {                    opacity: 0;                }                100% {                    opacity: 1;                }            }        </style><g id="freepik--background-simple--inject-150" class="animable" style="transform-origin: 248.804px 248.793px;"><path d="M142.41,142.16c47.5,11.26,79,68.06,134.34,39.32,59.34-30.83,124.88-50,143.21,6.88C443.74,262.14,351.55,382,203.31,352,96.46,330.39,75.71,254.78,74,214.13,72.06,166.78,107.13,133.8,142.41,142.16Z" style="fill: rgb(64, 123, 255); transform-origin: 248.804px 248.793px;" id="el6dugzf2uz2u" class="animable"></path><g id="elgqr5setk01"><path d="M142.41,142.16c47.5,11.26,79,68.06,134.34,39.32,59.34-30.83,124.88-50,143.21,6.88C443.74,262.14,351.55,382,203.31,352,96.46,330.39,75.71,254.78,74,214.13,72.06,166.78,107.13,133.8,142.41,142.16Z" style="fill: rgb(255, 255, 255); opacity: 0.9; transform-origin: 248.804px 248.793px;" class="animable"></path></g></g><g id="freepik--Shadow--inject-150" class="animable" style="transform-origin: 247px 438.73px;"><path d="M452.75,438.73c0,4.34-92.12,7.86-205.75,7.86s-205.75-3.52-205.75-7.86,92.12-7.86,205.75-7.86S452.75,434.39,452.75,438.73Z" style="fill: rgb(240, 240, 240); transform-origin: 247px 438.73px;" id="elrabcspjyksg" class="animable"></path></g><g id="freepik--Plant--inject-150" class="animable" style="transform-origin: 322.875px 401px;"><path d="M356.48,410H289.27a39.41,39.41,0,0,1,11-11.13l4.61,5.4-1.07-7.53A41.47,41.47,0,0,1,319.58,392l1.92,8.58.25-8.51c.78,0,1.57,0,2.38,0a42.6,42.6,0,0,1,16.21,3.25l-.4,6.85,1.72-6.25c.75.36,1.47.73,2.15,1.12l-1.67,10.23,7.87-5.74A27.76,27.76,0,0,1,356.48,410Z" style="fill: rgb(64, 123, 255); transform-origin: 322.875px 401px;" id="el8664pim31xn" class="animable"></path></g><g id="freepik--Rocks--inject-150" class="animable animator-active" style="transform-origin: 282.62px 396.078px;"><path d="M405.86,384.19s-18.54-12.62-9.12-19C403.09,360.94,409.44,375.41,405.86,384.19Z" style="fill: rgb(64, 123, 255); transform-origin: 400.483px 374.308px;" id="elq3nid9xoem8" class="animable"></path><path d="M413,382.93s24.37,2.73,20.48-7.08C430.73,368.83,416.36,374.06,413,382.93Z" style="fill: rgb(64, 123, 255); transform-origin: 423.45px 377.935px;" id="ellibta1fqyh" class="animable"></path><path d="M412.82,375.16s-3.1-24.09,7.79-21C428.36,356.4,421.79,371.85,412.82,375.16Z" style="fill: rgb(64, 123, 255); transform-origin: 418.228px 364.523px;" id="eluhw90qqa2xp" class="animable"></path><path d="M395,412.4a.28.28,0,0,1-.28,0,.27.27,0,0,1-.07-.38c5.69-8.43,12.05-22.66,16.38-33.12,4.7-11.34,8.09-20.81,8.12-20.9a.28.28,0,1,1,.52.18c0,.1-3.42,9.58-8.12,20.93-4.34,10.48-10.72,24.75-16.45,33.22A.22.22,0,0,1,395,412.4Z" style="fill: rgb(38, 50, 56); transform-origin: 407.154px 385.099px;" id="el7n9muxcskdd" class="animable"></path><path d="M403.84,396.28a.27.27,0,0,1-.34-.08.27.27,0,0,1,0-.39c.07-.05,6.64-5.12,12.17-6.47a.29.29,0,0,1,.34.21.28.28,0,0,1-.21.33c-5.41,1.32-11.89,6.32-12,6.37Z" style="fill: rgb(38, 50, 56); transform-origin: 409.716px 392.822px;" id="elqkr1dhj3gh" class="animable"></path><path d="M414.35,391.08a2.54,2.54,0,0,1-.37-3.6,2.6,2.6,0,0,1,3.64-.39,2.54,2.54,0,0,1,.37,3.6,2.73,2.73,0,0,1-.23.25A2.62,2.62,0,0,1,414.35,391.08Z" style="fill: rgb(64, 123, 255); transform-origin: 415.985px 389.082px;" id="elfw2h7es08hm" class="animable"></path><g id="el4xnkgwjcszk"><g style="opacity: 0.5; transform-origin: 415.985px 389.082px;" class="animable"><path d="M414.35,391.08a2.54,2.54,0,0,1-.37-3.6,2.6,2.6,0,0,1,3.64-.39,2.54,2.54,0,0,1,.37,3.6,2.73,2.73,0,0,1-.23.25A2.62,2.62,0,0,1,414.35,391.08Z" style="fill: rgb(255, 255, 255); transform-origin: 415.985px 389.082px;" id="elcio1rgpz96i" class="animable"></path></g></g><path d="M401.18,401.65a.32.32,0,0,1-.17,0,.28.28,0,0,1-.23-.32c.74-4.19-4.75-12.87-4.81-13a.29.29,0,0,1,.09-.39.28.28,0,0,1,.38.09c.23.36,5.67,8.95,4.89,13.35A.28.28,0,0,1,401.18,401.65Z" style="fill: rgb(38, 50, 56); transform-origin: 398.668px 394.781px;" id="el99qi2tqxqdv" class="animable"></path><path d="M395,390a2.6,2.6,0,0,0,3.12-1.9,2.51,2.51,0,0,0-1.23-2.82,2.64,2.64,0,0,0-.66-.25,2.6,2.6,0,0,0-3.13,1.89,2,2,0,0,0-.06.34A2.54,2.54,0,0,0,395,390Z" style="fill: rgb(64, 123, 255); transform-origin: 395.612px 387.514px;" id="el3dd2m0r9w33" class="animable"></path><g id="el5yarqsl4m6g"><g style="opacity: 0.5; transform-origin: 395.612px 387.514px;" class="animable"><path d="M395,390a2.6,2.6,0,0,0,3.12-1.9,2.51,2.51,0,0,0-1.23-2.82,2.64,2.64,0,0,0-.66-.25,2.6,2.6,0,0,0-3.13,1.89,2,2,0,0,0-.06.34A2.54,2.54,0,0,0,395,390Z" style="fill: rgb(255, 255, 255); transform-origin: 395.612px 387.514px;" id="el6wz9jt7iojp" class="animable"></path></g></g><path d="M407.27,388.83l-.08,0a.28.28,0,0,1-.32-.23c-1.2-7.7-8-17-8-17.09a.28.28,0,0,1,.06-.39.28.28,0,0,1,.39.06,65.52,65.52,0,0,1,3.6,5.69c1.72,3.05,3.9,7.54,4.54,11.65A.28.28,0,0,1,407.27,388.83Z" style="fill: rgb(38, 50, 56); transform-origin: 403.14px 379.95px;" id="elh50c6dmtzgi" class="animable"></path><path d="M408.12,386.91a.27.27,0,0,1-.32,0,.29.29,0,0,1,0-.4c2.3-2.32,6.17-4.66,11.48-6.94,4-1.69,7.28-2.72,7.31-2.73a.29.29,0,0,1,.35.19.28.28,0,0,1-.19.34c-.13,0-13.18,4.1-18.55,9.53Z" style="fill: rgb(38, 50, 56); transform-origin: 417.335px 381.896px;" id="eljyqh5eivh98" class="animable"></path><path d="M206.08,423.94s24.51.87,19.88-8.61C222.65,408.54,208.72,414.85,206.08,423.94Z" style="fill: rgb(64, 123, 255); transform-origin: 216.311px 418.218px;" id="el01ik7fblgck6" class="animable"></path><g id="el5iody1lalnq"><g style="opacity: 0.5; transform-origin: 216.311px 418.218px;" class="animable"><path d="M206.08,423.94s24.51.87,19.88-8.61C222.65,408.54,208.72,414.85,206.08,423.94Z" style="fill: rgb(255, 255, 255); transform-origin: 216.311px 418.218px;" id="elj6z6rai5epl" class="animable"></path></g></g><path d="M205.27,416.21s-4.93-23.78,6.17-21.51C219.33,396.32,214,412.22,205.27,416.21Z" style="fill: rgb(64, 123, 255); transform-origin: 209.734px 405.379px;" id="elujo5b929jyi" class="animable"></path><g id="el7iz6knt6wcq"><g style="opacity: 0.5; transform-origin: 209.734px 405.379px;" class="animable"><path d="M205.27,416.21s-4.93-23.78,6.17-21.51C219.33,396.32,214,412.22,205.27,416.21Z" style="fill: rgb(255, 255, 255); transform-origin: 209.734px 405.379px;" id="elgto48uztymf" class="animable"></path></g></g><path d="M200.27,431.83c1.48-4.06,2.83-8.05,4-11.6,3.82-11.68,6.48-21.39,6.51-21.48a.29.29,0,0,0-.2-.35.28.28,0,0,0-.34.2c0,.1-2.68,9.79-6.5,21.45-1.18,3.61-2.56,7.66-4.06,11.78Z" style="fill: rgb(38, 50, 56); transform-origin: 205.234px 415.111px;" id="el6fekxs9x0rs" class="animable"></path><path d="M201.47,428.29a.28.28,0,0,1-.35-.42c2.11-2.49,5.79-5.11,10.92-7.79,3.81-2,7-3.27,7.08-3.28a.28.28,0,1,1,.2.52c-.13.05-12.84,5.09-17.78,10.91Z" style="fill: rgb(38, 50, 56); transform-origin: 210.294px 422.546px;" id="el337u15zjon4" class="animable"></path><path d="M185.17,417.08s-2.17-11.66,2.48-12.83S189.09,415,189.09,415s4.29-6.64,7.85-4.22-7.43,8.35-7.43,8.35Z" style="fill: rgb(64, 123, 255); transform-origin: 191.157px 411.65px;" id="el2uyrbmi89wl" class="animable"></path><g id="eli65jdovay7"><path d="M434.28,423.61s-15.56-21.84-19.44-24.23-18.55,1.49-28.43,1.49-15.55,13.95-21.54,16.46-26.32,20.94-26.32,20.94H439.67Z" style="fill: rgb(255, 255, 255); opacity: 0.5; transform-origin: 389.11px 418.436px;" class="animable"></path></g><path d="M434.28,423.61s-15.56-21.84-19.44-24.23-18.55,1.49-28.43,1.49-15.55,13.95-21.54,16.46-26.32,20.94-26.32,20.94H439.67Z" style="fill: rgb(38, 50, 56); transform-origin: 389.11px 418.436px;" id="elv0m1fw9fq3r" class="animable"></path><g id="elyw3v0m76p3q"><path d="M439.67,438.27H338.54l1.76-1.58c5.07-4.51,19.66-17.3,24.58-19.36,6-2.51,11.66-16.46,21.54-16.46,9.16,0,22.45-3.35,27.42-1.9a3.73,3.73,0,0,1,1,.41c3.9,2.39,19.45,24.23,19.45,24.23Z" style="fill: rgb(255, 255, 255); opacity: 0.5; transform-origin: 389.105px 418.438px;" class="animable"></path></g><g id="el4g7jffv4kjd"><path d="M439.67,438.27H338.54l1.76-1.58c5.14-.67,16.7-2.35,19.82-4.25,4.05-2.47,23.55-4.94,33.42-3.37s9.43-13.69,14.36-17.73c3-2.46,4.92-8.25,5.94-12.37a3.73,3.73,0,0,1,1,.41c3.9,2.39,19.45,24.23,19.45,24.23Z" style="opacity: 0.2; transform-origin: 389.105px 418.62px;" class="animable"></path></g><path d="M125.6,422.61s13.83-13.36,16.13-13.36,20.11.46,28.48,0,17.59,7.83,25,13.36,27.18,10.59,27.18,10.59l3.22,5.07h-100Z" style="fill: rgb(38, 50, 56); transform-origin: 175.605px 423.751px;" id="elnqesdmohxx" class="animable"></path><g id="elodi0352caao"><path d="M225.57,438.27h-100V422.61s13.83-13.36,16.13-13.36l3.19,0c6.06.11,18.65.33,25.29,0,8.38-.46,17.59,7.83,25,13.36s27.18,10.59,27.18,10.59l2.76,4.34Z" style="fill: rgb(255, 255, 255); opacity: 0.5; transform-origin: 175.57px 423.751px;" class="animable"></path></g><g id="elx9s7ezexabp"><path d="M225.57,438.27h-100V422.61s13.83-13.36,16.13-13.36l3.19,0a14.59,14.59,0,0,0,17.18,13.35,1.66,1.66,0,0,0,.22,0c3.4-.62,15,1.15,18.65,7.14s21.29,5.31,21.29,5.31,16.08.74,22.85,2.48Z" style="opacity: 0.2; transform-origin: 175.57px 423.76px;" class="animable"></path></g></g><g id="freepik--Treasure--inject-150" class="animable" style="transform-origin: 110.64px 401.425px;"><path d="M160.64,377.32v60.95h-100V377.32a12.79,12.79,0,0,1,12.79-12.79h74.42a12.8,12.8,0,0,1,12.79,12.79Z" style="fill: rgb(64, 123, 255); transform-origin: 110.64px 401.4px;" id="elipzsjtaxj1" class="animable"></path><g id="eltuzpp0ebkg"><path d="M160.64,377.32v60.95H135.06V377.32a12.79,12.79,0,0,1,25.58,0Z" style="opacity: 0.2; transform-origin: 147.85px 401.4px;" class="animable"></path></g><rect x="60.64" y="393.68" width="100" height="5.27" style="fill: rgb(64, 123, 255); transform-origin: 110.64px 396.315px;" id="elwrt6wnpl1c" class="animable"></rect><rect x="135.06" y="393.67" width="25.58" height="5.27" style="fill: rgb(64, 123, 255); transform-origin: 147.85px 396.305px;" id="eljd4ey12matf" class="animable"></rect><g id="elq5twvdxcmvj"><rect x="71.14" y="398.95" width="4.96" height="39.32" style="fill: rgb(255, 255, 255); opacity: 0.2; transform-origin: 73.62px 418.61px;" class="animable"></rect></g><g id="eljwuz7c8s3xa"><rect x="119.4" y="398.95" width="4.96" height="39.32" style="fill: rgb(255, 255, 255); opacity: 0.2; transform-origin: 121.88px 418.61px;" class="animable"></rect></g><g id="el8j9fjisfi8v"><path d="M135.06,393.67V399H102v7.75a5,5,0,1,1-9.92,0V399H60.64v-5.28Z" style="fill: rgb(255, 255, 255); opacity: 0.2; transform-origin: 97.85px 403.026px;" class="animable"></path></g><circle cx="96.97" cy="403.62" r="1.72" style="fill: rgb(38, 50, 56); transform-origin: 96.97px 403.62px;" id="eldk451zciu0f" class="animable"></circle><polygon points="98.86 408.02 95.09 408.02 96.13 404.26 97.82 404.26 98.86 408.02" style="fill: rgb(38, 50, 56); transform-origin: 96.975px 406.14px;" id="el3p22qz4c3zy" class="animable"></polygon><g id="elsspt53cq6y"><g style="opacity: 0.2; transform-origin: 76.7944px 379.1px;" class="animable"><path d="M82.29,364.53A9.11,9.11,0,0,0,77.2,369,12.08,12.08,0,0,0,76,374.5v19.17H71.3V374.5a16.62,16.62,0,0,1,1.79-7.7,14.38,14.38,0,0,1,1.48-2.27Z" style="fill: rgb(255, 255, 255); transform-origin: 76.7944px 379.1px;" id="elgibfnq2w8lj" class="animable"></path></g></g><g id="elxmz9shdbv3"><g style="opacity: 0.2; transform-origin: 124.899px 379.1px;" class="animable"><path d="M130.4,364.53a9.05,9.05,0,0,0-5.09,4.44,11.83,11.83,0,0,0-1.26,5.53v19.17H119.4V374.5a16.38,16.38,0,0,1,1.8-7.7,14.38,14.38,0,0,1,1.48-2.27Z" style="fill: rgb(255, 255, 255); transform-origin: 124.899px 379.1px;" id="eldesoo6lycqv" class="animable"></path></g></g><path d="M160.64,377.32v60.95h-100V377.32a12.71,12.71,0,0,1,3.89-9.17,12,12,0,0,1,1.26-1.09,12.74,12.74,0,0,1,7.64-2.53h74.42a12.73,12.73,0,0,1,7.63,2.53,13.26,13.26,0,0,1,1.27,1.09l.14.13A12.79,12.79,0,0,1,160.64,377.32Z" style="fill: rgb(64, 123, 255); transform-origin: 110.64px 401.4px;" id="el9mghf1oq61f" class="animable"></path><g id="el0mopsaphp9z"><path d="M160.64,377.32v60.95H135.06V377.32a12.79,12.79,0,0,1,25.58,0Z" style="opacity: 0.2; transform-origin: 147.85px 401.4px;" class="animable"></path></g><rect x="60.64" y="393.68" width="100" height="5.27" style="fill: rgb(64, 123, 255); transform-origin: 110.64px 396.315px;" id="elwym71lcqgc" class="animable"></rect><rect x="135.06" y="393.67" width="25.58" height="5.27" style="fill: rgb(64, 123, 255); transform-origin: 147.85px 396.305px;" id="eluea1zc0mpr" class="animable"></rect><g id="el2fijy8n5f3r"><rect x="60.64" y="401.89" width="100" height="1.08" style="opacity: 0.2; transform-origin: 110.64px 402.43px;" class="animable"></rect></g><g id="el1tybcxfcmyf"><rect x="60.64" y="412.64" width="100" height="1.08" style="opacity: 0.2; transform-origin: 110.64px 413.18px;" class="animable"></rect></g><g id="eluw6v9z5ddr"><rect x="60.64" y="423.39" width="100" height="1.08" style="opacity: 0.2; transform-origin: 110.64px 423.93px;" class="animable"></rect></g><g id="elzhpbw0asx8o"><path d="M156.75,368.15H64.53a12,12,0,0,1,1.26-1.09h89.69A13.26,13.26,0,0,1,156.75,368.15Z" style="opacity: 0.2; transform-origin: 110.64px 367.605px;" class="animable"></path></g><g id="elqz4zuyfpb78"><rect x="60.64" y="377.81" width="100" height="1.08" style="opacity: 0.2; transform-origin: 110.64px 378.35px;" class="animable"></rect></g><g id="el3og59ut1fmj"><rect x="60.64" y="388.56" width="100" height="1.08" style="opacity: 0.2; transform-origin: 110.64px 389.1px;" class="animable"></rect></g><path d="M124.05,393.67V374.5a11.83,11.83,0,0,1,1.26-5.53,9.05,9.05,0,0,1,5.09-4.44h-7.72a14.38,14.38,0,0,0-1.48,2.27,16.38,16.38,0,0,0-1.8,7.7v19.17H76V374.5A12.08,12.08,0,0,1,77.2,369a9.11,9.11,0,0,1,5.09-4.44H74.57a14.38,14.38,0,0,0-1.48,2.27,16.62,16.62,0,0,0-1.79,7.7v19.17H60.64V399h10.5v39.32h5V399h16v7.75a5,5,0,1,0,9.92,0V399H119.4v39.32h5V399h10.7v-5.28Z" style="fill: rgb(64, 123, 255); transform-origin: 97.87px 401.425px;" id="elp6euch4cmj9" class="animable"></path><g id="elj8e6pv96jgq"><path d="M124.05,393.67V374.5a11.83,11.83,0,0,1,1.26-5.53,9.05,9.05,0,0,1,5.09-4.44h-7.72a14.38,14.38,0,0,0-1.48,2.27,16.38,16.38,0,0,0-1.8,7.7v19.17H76V374.5A12.08,12.08,0,0,1,77.2,369a9.11,9.11,0,0,1,5.09-4.44H74.57a14.38,14.38,0,0,0-1.48,2.27,16.62,16.62,0,0,0-1.79,7.7v19.17H60.64V399h10.5v39.32h5V399h16v7.75a5,5,0,1,0,9.92,0V399H119.4v39.32h5V399h10.7v-5.28Z" style="fill: rgb(255, 255, 255); opacity: 0.2; transform-origin: 97.87px 401.425px;" class="animable"></path></g><path d="M95.08,408l.85-3a1.69,1.69,0,0,1-.68-1.36A1.73,1.73,0,1,1,98,405l.84,3Z" style="fill: rgb(38, 50, 56); transform-origin: 96.96px 404.937px;" id="elnu6ejcb3awc" class="animable"></path><rect x="60.64" y="432.48" width="100" height="5.79" style="fill: rgb(64, 123, 255); transform-origin: 110.64px 435.375px;" id="el4b27woolvy2" class="animable"></rect><g id="elu0fidfq2bpn"><rect x="60.64" y="432.48" width="100" height="5.79" style="fill: rgb(255, 255, 255); opacity: 0.2; transform-origin: 110.64px 435.375px;" class="animable"></rect></g><rect x="135.06" y="432.47" width="25.58" height="5.8" style="fill: rgb(64, 123, 255); transform-origin: 147.85px 435.37px;" id="el8d414r1jbwc" class="animable"></rect></g><g id="freepik--character-2--inject-150" class="animable" style="transform-origin: 310.503px 305.739px;"><polygon points="377.19 418.06 377.19 431.06 371.11 431.54 368.39 418.69 377.19 418.06" style="fill: rgb(255, 139, 123); transform-origin: 372.79px 424.8px;" id="elcs1al762xek" class="animable"></polygon><path d="M372.87,430.12s-1.91-3.67-3-3.28-1.58,4.85-1.58,4.85-6.13,2.05-7.85,2.16-3.09,1.08-3.31,4.42H378s-.14-7.55-.17-8.85-1.89.33-1.89.33Z" style="fill: rgb(64, 123, 255); transform-origin: 367.565px 432.54px;" id="elvth7oijacwl" class="animable"></path><g id="el28n70ubtx2t"><g style="opacity: 0.2; transform-origin: 367.565px 432.54px;" class="animable"><path d="M372.87,430.12s-1.91-3.67-3-3.28-1.58,4.85-1.58,4.85-6.13,2.05-7.85,2.16-3.09,1.08-3.31,4.42H378s-.14-7.55-.17-8.85-1.89.33-1.89.33Z" style="fill: rgb(255, 255, 255); transform-origin: 367.565px 432.54px;" id="eldiktr8878m5" class="animable"></path></g></g><path d="M377.78,432.29a3.14,3.14,0,0,0-1.13,4.42.16.16,0,1,1-.27.16,3.45,3.45,0,0,1,1.2-4.86c.17-.11.38.18.2.28Z" style="fill: rgb(255, 255, 255); transform-origin: 376.842px 434.481px;" id="elcxjyr6huvwl" class="animable"></path><path d="M377.81,437.07l-16.41.17-3.82,0c-.21,0-.26-.33,0-.33l16.42-.18,3.81,0c.22,0,.26.33,0,.33Z" style="fill: rgb(255, 255, 255); transform-origin: 367.697px 436.985px;" id="elqqknq4z98tf" class="animable"></path><path d="M369.15,433a2.11,2.11,0,0,0-3-.54c-.16.12-.36-.17-.21-.29,1.08-.89,2.55-.5,3.53.66.14.17-.12.34-.27.17Z" style="fill: rgb(255, 255, 255); transform-origin: 367.699px 432.376px;" id="eln2qtdhqhwb" class="animable"></path><path d="M367.42,433.55a2.14,2.14,0,0,0-3.06-.54c-.15.13-.35-.16-.2-.29a2.49,2.49,0,0,1,3.52.66c.15.18-.12.34-.26.17Z" style="fill: rgb(255, 255, 255); transform-origin: 365.915px 432.941px;" id="elyrte78vd4on" class="animable"></path><path d="M365.63,434.09a2.14,2.14,0,0,0-3.06-.54c-.15.13-.36-.16-.2-.28,1.08-.89,2.55-.51,3.52.66.15.17-.12.34-.26.16Z" style="fill: rgb(255, 255, 255); transform-origin: 364.123px 433.473px;" id="elylcn3fjjoar" class="animable"></path><path d="M371.14,268.21c1.24,3.88.89,10.84.8,15.22-.15,8.37-.38,19.21-.42,30.07,0,12.58-1.24,24.59-.38,33.33,2.21,22.45,6.65,73.9,6.65,73.9H368s-14.76-50.56-18.37-73.31c-3-18.87-9.21-65.19-9.66-76.94Z" style="fill: rgb(38, 50, 56); transform-origin: 358.88px 344.47px;" id="eltno6t4ns7kc" class="animable"></path><polygon points="378.65 421.07 367.11 421.07 366.27 417.4 379.18 416.95 378.65 421.07" style="fill: rgb(64, 123, 255); transform-origin: 372.725px 419.01px;" id="el52h9qkprp8w" class="animable"></polygon><path d="M325.26,280s-48.32,32-50.93,38-8.81,60.75-8.81,60.75l8.81,2.59c8.5-12.43,14.85-37.72,17.18-52.39,3.45-3.82,65.58-34.45,65.58-34.45l10.37-17.93Z" style="fill: rgb(38, 50, 56); transform-origin: 316.49px 328.955px;" id="elx1pg1uxcfdo" class="animable"></path><polygon points="274.35 383.27 269.13 395.72 263.71 393.07 266.08 379.81 274.35 383.27" style="fill: rgb(255, 139, 123); transform-origin: 269.03px 387.765px;" id="el4vac09xbjaw" class="animable"></polygon><polygon points="275.81 384.28 264.75 381.03 264.97 377.26 277.49 380.47 275.81 384.28" style="fill: rgb(64, 123, 255); transform-origin: 271.12px 380.77px;" id="elnjvkga9fiia" class="animable"></polygon><path d="M265.56,393.29s.49-4.11-.66-4.42-4,3.1-4,3.1-6.21-1.77-7.69-2.64-3.17-.86-5.23,1.78l17.27,11.8s4.15-6.31,4.85-7.4-1.74-.79-1.74-.79Z" style="fill: rgb(64, 123, 255); transform-origin: 259.103px 395.862px;" id="elqxakou6axg" class="animable"></path><g id="el7u0agflqers"><g style="opacity: 0.2; transform-origin: 259.103px 395.862px;" class="animable"><path d="M265.56,393.29s.49-4.11-.66-4.42-4,3.1-4,3.1-6.21-1.77-7.69-2.64-3.17-.86-5.23,1.78l17.27,11.8s4.15-6.31,4.85-7.4-1.74-.79-1.74-.79Z" style="fill: rgb(255, 255, 255); transform-origin: 259.103px 395.862px;" id="el8jcezui4r2i" class="animable"></path></g></g><path d="M268.39,397.85a3.13,3.13,0,0,0-3.43,3,.16.16,0,1,1-.32,0,3.45,3.45,0,0,1,3.74-3.34c.2,0,.21.36,0,.35Z" style="fill: rgb(255, 255, 255); transform-origin: 266.587px 399.254px;" id="el8ez9wuit8fk" class="animable"></path><path d="M265.72,401.81l-13.65-9.12-3.18-2.12c-.17-.12,0-.42.16-.3l13.65,9.12,3.17,2.12c.18.12,0,.42-.15.3Z" style="fill: rgb(255, 255, 255); transform-origin: 257.382px 396.04px;" id="elhawbek4wkyq" class="animable"></path><path d="M260.86,393.57a2.13,2.13,0,0,0-2.22-2.17c-.2,0-.2-.34,0-.35,1.39-.12,2.39,1,2.54,2.53,0,.23-.29.21-.31,0Z" style="fill: rgb(255, 255, 255); transform-origin: 259.835px 392.393px;" id="elquyb80kzsjg" class="animable"></path><path d="M259.12,393a2.13,2.13,0,0,0-2.22-2.17c-.2,0-.2-.33,0-.35,1.39-.12,2.38,1,2.53,2.53,0,.23-.29.21-.31,0Z" style="fill: rgb(255, 255, 255); transform-origin: 258.09px 391.823px;" id="eltwuwore4vtl" class="animable"></path><path d="M257.33,392.48a2.12,2.12,0,0,0-2.21-2.17c-.2,0-.21-.34,0-.35,1.39-.13,2.39,1,2.54,2.53,0,.22-.3.21-.32,0Z" style="fill: rgb(255, 255, 255); transform-origin: 256.313px 391.301px;" id="elsbgqiadkx3" class="animable"></path><path d="M315.36,218.88q1.88,12.44,3.46,24.9c1.05,8.33,2.05,16.62,2.89,25.06l.29,3.22.13,1.71q.06.89.06,1.77c0,2.34-.07,4.4-.17,6.54-.19,4.24-.45,8.43-.76,12.63-.6,8.38-1.38,16.74-2.41,25.1l-6.44-.15c-.64-8.37-1.08-16.75-1.44-25.1l-.53-12.48c-.11-2-.18-4.17-.33-6,0-.46-.08-.91-.13-1.36l-.17-1.41-.41-3c-.55-4.08-1.14-8.22-1.75-12.34l-1.78-12.4q-1.77-12.4-3.39-24.84Z" style="fill: rgb(255, 139, 123); transform-origin: 312.335px 269.345px;" id="elhs79og6tusn" class="animable"></path><path d="M301.51,218.17l1.74,29.33h14.42S308.84,214.83,301.51,218.17Z" style="fill: rgb(64, 123, 255); transform-origin: 309.59px 232.715px;" id="elwa25a30m1o" class="animable"></path><g id="elkvrehdo60za"><g style="opacity: 0.3; transform-origin: 309.59px 232.715px;" class="animable"><path d="M301.51,218.17l1.74,29.33h14.42S308.84,214.83,301.51,218.17Z" id="elml7guo53lw" class="animable" style="transform-origin: 309.59px 232.715px;"></path></g></g><path d="M317.1,203.26s16.86-7.92,21.67-5.09,20.08,22.26,28.8,44.89c5.32,13.82,5.27,32.49,5.27,32.49-25.4,11.41-49.62,13.72-50.82,6.53,0,0,1.4-9-4.72-23.79s-15.72-35.68-15.79-41.12S317.1,203.26,317.1,203.26Z" style="fill: rgb(64, 123, 255); transform-origin: 337.175px 241.871px;" id="elkbyyvdo8su" class="animable"></path><path d="M288.53,175.64a15,15,0,0,1,11.29-4.06c2.71.21,5.39,1.15,6.47,3.82,2.54,6.24,5.24,17.32,5.24,17.32l-24.92-.51s-3.74-4.53-2.7-8.88A14.63,14.63,0,0,1,288.53,175.64Z" style="fill: rgb(38, 50, 56); transform-origin: 297.629px 182.134px;" id="elzyow5y7p3te" class="animable"></path><path d="M305.69,204.31h0l.07.05,2.78,2.86a13.73,13.73,0,0,1,1.17,2,12.26,12.26,0,0,1,.66,1.77c-.17,1.42.77,3.92,3.41,2.45,3.32-1.84,6.88-9.81,6.28-11.4-4.08-3.66-8.54-8.52-10.73-13l-1.48,6.22Z" style="fill: rgb(255, 139, 123); transform-origin: 312.908px 201.464px;" id="el316wodlhbhg" class="animable"></path><g id="el2fecy70p5h8"><g style="opacity: 0.2; transform-origin: 308.183px 201.984px;" class="animable"><path d="M305.76,204.37l2.78,2.86c1.54-2.11,2.56-5.37,1.82-7.85-.55-1.79-2.11-2.87-2.79-2.6Z" id="eljiyygoy1vnq" class="animable" style="transform-origin: 308.183px 201.984px;"></path></g></g><path d="M293.42,202.05c.6.62,1.23,1.22,1.86,1.8,5.61,5.09,13.66,1.31,15.88-6,0,0,0,0,0,0a13,13,0,0,0,.45-2c.79-5.74-1.71-8.4-6.12-15.15a11,11,0,0,0-18.69.25C282.79,187.49,287.34,195.86,293.42,202.05Z" style="fill: rgb(255, 139, 123); transform-origin: 298.52px 190.906px;" id="elkv19f6clx6" class="animable"></path><path d="M302.49,185.24s2.64,6.08.63,8-4.66.62-6.19,4.27a3.52,3.52,0,0,0-3.18,1.7c-1.08,1.87-.51,2.46-.51,2.46s4.49,8.84,12.37,4.23,5.39-13.21,3-17.3l-3.94-4.69Z" style="fill: rgb(38, 50, 56); transform-origin: 302.027px 195.571px;" id="el8p329ts3ovo" class="animable"></path><path d="M300.71,196.06a54.28,54.28,0,0,1-4.53,3.69,2.92,2.92,0,0,0,4.25-.27C301.81,198,300.71,196.06,300.71,196.06Z" style="fill: rgb(255, 255, 255); transform-origin: 298.653px 198.3px;" id="elg1iny2x2ad7" class="animable"></path><path d="M285.87,180.47c2.08-4.12,8.54-8.36,13.11-6.58s7,7.35,7,7.35a2.6,2.6,0,0,1,.18,1.9,1.81,1.81,0,0,0-.09.37l-3.37,2.14c-.92-1.37-2.69-3.83-3.77-3.54-2,.55-1.61-2.11-2.53-3.11-3-3.26-12.26,3.81-10.95,10.18C285.41,189.18,283.78,184.59,285.87,180.47Z" style="fill: rgb(38, 50, 56); transform-origin: 295.535px 181.326px;" id="elk2y03kqj8s8" class="animable"></path><path d="M311.47,182.87a7.67,7.67,0,0,1-.23,5.85c-1.14,2.43-3.73,1.9-5.11-.23-1.25-1.93-2.15-5.51-.19-7.25s4.65-.69,5.53,1.63" style="fill: rgb(255, 139, 123); transform-origin: 308.369px 185.35px;" id="el8f11p9f4pum" class="animable"></path><path d="M296.73,189.68c.37.51.41,1.11.08,1.35s-.89,0-1.27-.46-.41-1.11-.08-1.35.9,0,1.27.46" style="fill: rgb(38, 50, 56); transform-origin: 296.133px 190.125px;" id="ela4qfjfz1rt" class="animable"></path><path d="M291.41,193.61c.38.5.41,1.1.09,1.35s-.9,0-1.27-.47-.41-1.1-.09-1.35.9,0,1.27.47" style="fill: rgb(38, 50, 56); transform-origin: 290.822px 194.05px;" id="elab2ngd9ranj" class="animable"></path><path d="M288.14,193a.34.34,0,0,0,.13-.3,1.66,1.66,0,0,1,.28-1.28,1.94,1.94,0,0,1,1.16-.62.32.32,0,0,0,.29-.35.33.33,0,0,0-.35-.29,2.57,2.57,0,0,0-1.6.86,2.25,2.25,0,0,0-.42,1.76.33.33,0,0,0,.36.28A.34.34,0,0,0,288.14,193Z" style="fill: rgb(38, 50, 56); transform-origin: 288.798px 191.61px;" id="elobfpzicw9" class="animable"></path><path d="M296.83,186.56a.4.4,0,0,0,.1-.12.34.34,0,0,0-.15-.46,2.74,2.74,0,0,0-2-.17,2.4,2.4,0,0,0-1.42,1.35.34.34,0,0,0,.62.3,1.77,1.77,0,0,1,1-1,2.1,2.1,0,0,1,1.43.12A.35.35,0,0,0,296.83,186.56Z" style="fill: rgb(38, 50, 56); transform-origin: 295.147px 186.675px;" id="elkfb3pn5imm" class="animable"></path><path d="M292.9,191.49a20,20,0,0,1,.8,4.87c0,2.14,2.81.14,2.81.14Z" style="fill: rgb(255, 86, 82); transform-origin: 294.705px 194.419px;" id="eluqf1nvmkxz9" class="animable"></path><path d="M307.68,178.88s-.2,1-7.92,1.53h0c-.55.05-1.14.08-1.77.12s-1.38.09-2.09.17c-3.46.33-7.06,1.13-9.34,3.63-1.84,2.66.07,7.87.07,7.87s-12.73,2.74-13.2-2.83c-.26-2.84,4-5.2,9.11-7,.28-2.23,2-10,12-11.73,8.72-1.51,11.6,3,12.53,5.81.08.23.15.43.2.63Z" style="fill: rgb(64, 123, 255); transform-origin: 290.549px 181.606px;" id="elba840gclcm4" class="animable"></path><g id="el5siw4u46afj"><g style="opacity: 0.3; transform-origin: 295.11px 176.394px;" class="animable"><path d="M307.68,178.88s-.2,1-7.92,1.53h0a65.84,65.84,0,0,0-17.22,2c.28-2.23,2-10,12-11.73,8.72-1.51,11.6,3,12.53,5.81.08.23.15.43.2.63Z" style="fill: rgb(255, 255, 255); transform-origin: 295.11px 176.394px;" id="el1cwdyrzb2pl" class="animable"></path></g></g><path d="M333,198.15c5.54-2.77,11.08-5.34,16.79-7.74,2.86-1.21,5.75-2.35,8.74-3.44,1.5-.55,3-1.07,4.66-1.55.82-.24,1.67-.48,2.63-.69a15.83,15.83,0,0,1,1.64-.3l.5-.07.59-.05c.26,0,.4,0,.74,0a7.77,7.77,0,0,1,1.05.08,5.93,5.93,0,0,1,.69.12,8,8,0,0,1,1,.3,6.3,6.3,0,0,1,.66.3c.24.13.47.27.7.42l.33.24.18.15.34.3.32.32.21.25.38.48c.2.28.33.5.48.75a11.24,11.24,0,0,1,.87,2,23.65,23.65,0,0,1,.79,2.8c.38,1.71.65,3.3.89,4.88.46,3.16.8,6.25,1.06,9.34.55,6.17.82,12.28.89,18.46l-7.77.77-3.52-17.74c-.6-2.92-1.21-5.85-1.9-8.65-.33-1.4-.69-2.79-1.08-4a14.86,14.86,0,0,0-.58-1.54c-.07-.16-.17-.31-.08-.11s.09.15.17.27a2.43,2.43,0,0,0,.2.25l.12.14.22.23.23.21.13.09.27.21a5.58,5.58,0,0,0,.58.35,5.3,5.3,0,0,0,.53.23,4.1,4.1,0,0,0,.7.23l.41.08.48,0h.2l-.06,0-.6.16c-.51.15-1.12.36-1.74.58-1.25.46-2.58,1-3.92,1.54-2.67,1.11-5.38,2.33-8.1,3.55l-16.33,7.5Z" style="fill: rgb(255, 139, 123); transform-origin: 356.565px 205.29px;" id="elojx7d5hf3ib" class="animable"></path><path d="M265.52,398.38a2,2,0,0,1-1.11-.34,2,2,0,0,1-.56-2.77l131.81-198a2,2,0,1,1,3.33,2.22l-131.81,198A2,2,0,0,1,265.52,398.38Z" style="fill: rgb(38, 50, 56); transform-origin: 331.422px 297.379px;" id="el2bdi0j7ciw6" class="animable"></path><g id="elphq3o9c74c"><g style="opacity: 0.3; transform-origin: 331.422px 297.379px;" class="animable"><path d="M265.52,398.38a2,2,0,0,1-1.11-.34,2,2,0,0,1-.56-2.77l131.81-198a2,2,0,1,1,3.33,2.22l-131.81,198A2,2,0,0,1,265.52,398.38Z" style="fill: rgb(255, 255, 255); transform-origin: 331.422px 297.379px;" id="eluqusf67ty7l" class="animable"></path></g></g><path d="M275.13,409.77l-14.91,21.55c-6.29,9.1-17.2,12.46-24.36,7.5h0c-7.16-4.95-7.86-16.34-1.57-25.44l14.9-21.55,10.75,7.44,5.21-7.53,4.43,3.07-5.2,7.53Z" style="fill: rgb(38, 50, 56); transform-origin: 252.563px 416.426px;" id="elzwc2ctcqlf" class="animable"></path><g id="eljburhgsadxa"><g style="opacity: 0.6; transform-origin: 252.563px 416.426px;" class="animable"><path d="M275.13,409.77l-14.91,21.55c-6.29,9.1-17.2,12.46-24.36,7.5h0c-7.16-4.95-7.86-16.34-1.57-25.44l14.9-21.55,10.75,7.44,5.21-7.53,4.43,3.07-5.2,7.53Z" style="fill: rgb(255, 255, 255); transform-origin: 252.563px 416.426px;" id="elkhoo2qxg1u" class="animable"></path></g></g><path d="M372.42,226.09c-1.33,1-1.54,6.7-1.58,8.74L372.6,232s.34,5.4,1,6.27,6.31-5.06,6.88-6.69-.32-11-.32-11Z" style="fill: rgb(255, 139, 123); transform-origin: 375.755px 229.468px;" id="el1nz9adws0yq" class="animable"></path><path d="M315.79,315.94a6.59,6.59,0,0,0-4,2.83c-.82,1.22-1.7,2.73-1.66,3.51.06,1.44.72,1.75,2.33.75s4.6-6.13,4.42-6.94C316.78,315.82,316.35,315.82,315.79,315.94Z" style="fill: rgb(255, 139, 123); transform-origin: 313.508px 319.738px;" id="eltxj348vhmzn" class="animable"></path><path d="M311,323.71s1.86,4.23,3.55,4.23,6.62-7.32,6.75-9.56-1.19-2.38-1.59-2.55C318.8,315.47,312.36,320.09,311,323.71Z" style="fill: rgb(255, 139, 123); transform-origin: 316.154px 321.875px;" id="elu945zx3g6j" class="animable"></path><path d="M330.15,198.45,348,191l6.44,17.11s-12.71,7-19.69,5.23S325.91,203.89,330.15,198.45Z" style="fill: rgb(64, 123, 255); transform-origin: 341.168px 202.313px;" id="elfr5uxfbc408" class="animable"></path><g id="el8qbfkeckxls"><path d="M330.15,198.45,348,191l6.44,17.11s-12.71,7-19.69,5.23S325.91,203.89,330.15,198.45Z" style="opacity: 0.3; transform-origin: 341.168px 202.313px;" class="animable"></path></g><path d="M221.68,441.11s5.19-9.51,10-8.72a7.76,7.76,0,0,1,6.16,4.35s5-6,11-5.87,6.5,4.9,6.5,4.9,4.51-1.13,7.57,1,3.07,4.37,3.07,4.37Z" style="fill: rgb(38, 50, 56); transform-origin: 243.83px 436.004px;" id="ele35l5md5coa" class="animable"></path><g id="el75pjkzyakcf"><path d="M221.68,441.11s5.19-9.51,10-8.72a7.76,7.76,0,0,1,6.16,4.35s5-6,11-5.87,6.5,4.9,6.5,4.9,4.51-1.13,7.57,1,3.07,4.37,3.07,4.37Z" style="fill: rgb(255, 255, 255); opacity: 0.3; transform-origin: 243.83px 436.004px;" class="animable"></path></g></g><g id="freepik--character-1--inject-150" class="animable" style="transform-origin: 161.103px 297.732px;"><path d="M181.09,220.06c2.3,4.72,4.56,9.52,6.79,14.27l3.36,7.08c.56,1.16,1.14,2.31,1.69,3.4l.42.82.4.74c.26.49.57,1,.86,1.46,1.27,2,2.77,4.18,4.27,6.29l4.58,6.43c3.09,4.28,6.15,8.64,9.15,13l-4.45,3.93c-4-3.58-7.91-7.27-11.67-11.12-1.87-1.93-3.74-3.86-5.56-5.88s-3.64-4-5.42-6.36c-.45-.62-.93-1.21-1.34-1.87l-.62-1-.56-.92c-.75-1.22-1.41-2.42-2.08-3.62-1.33-2.39-2.59-4.77-3.8-7.17-2.45-4.79-4.74-9.6-6.92-14.52Z" style="fill: rgb(255, 195, 189); transform-origin: 191.4px 248.77px;" id="elhdvg3bzxm9" class="animable"></path><path d="M155,196.77s-26.57-.65-30.27,2.65-12.14,49.05-8.54,55.75,21.94,6.88,21.94,6.88l27.39-58.27Z" style="fill: rgb(38, 50, 56); transform-origin: 140.418px 229.384px;" id="elsloa07pyjss" class="animable"></path><path d="M171.5,206.17c4.08,2.08,9.75,8.75,14.25,20.33L173,234l-8.49-9.52S167.88,208.2,171.5,206.17Z" style="fill: rgb(64, 123, 255); transform-origin: 175.13px 220.085px;" id="el8xbje8qem5e" class="animable"></path><g id="el6cbeb13c6tn"><path d="M171.5,206.17c4.08,2.08,9.75,8.75,14.25,20.33L173,234l-8.49-9.52S167.88,208.2,171.5,206.17Z" style="opacity: 0.2; transform-origin: 175.13px 220.085px;" class="animable"></path></g><polygon points="166.61 421.17 168.72 431.25 174.02 431.25 174.6 421.17 166.61 421.17" style="fill: rgb(255, 195, 189); transform-origin: 170.605px 426.21px;" id="el1081d5baqj6" class="animable"></polygon><path d="M189.18,438.38c-.17-3.29-1.58-4.27-3.36-4.38s-8.38-2.33-8.38-2.33-1.31-2.09-2.52-2.51-2.42.81-2.42.81l-3.32-.4s-.94-1.5-1.68-.19c-1.13,2-1.19,7.67-1.14,9Z" style="fill: rgb(38, 50, 56); transform-origin: 177.764px 433.612px;" id="ele9ebpkk8yl8" class="animable"></path><path d="M188.78,437.52l-4.14,0-18.09-.1c-.23,0-.17-.35.06-.34h1.22l0,0a3.3,3.3,0,0,0-1.07-4.78c-.19-.1.05-.41.23-.3a3.59,3.59,0,0,1,1.19,5.12l2.55,0,18.09.09C189.07,437.17,189,437.52,188.78,437.52Z" style="fill: rgb(64, 123, 255); transform-origin: 177.692px 434.748px;" id="elhhupwbubv84" class="animable"></path><path d="M176.39,433.09c1-1.11,2.36-1.42,3.34-.59.15.14.38-.17.23-.3-1.12-1-2.74-.54-3.84.71-.17.18.11.36.27.18Z" style="fill: rgb(255, 255, 255); transform-origin: 178.038px 432.41px;" id="elm97h94x156" class="animable"></path><path d="M178.24,433.68c1-1.11,2.36-1.42,3.34-.59.15.13.38-.17.23-.3-1.12-1-2.73-.54-3.84.71-.17.18.11.36.27.18Z" style="fill: rgb(255, 255, 255); transform-origin: 179.888px 433px;" id="elt7zijykiacr" class="animable"></path><path d="M180.15,434.26c1-1.1,2.37-1.42,3.34-.58.16.13.39-.17.23-.3-1.12-1-2.73-.55-3.84.71-.16.18.11.36.27.17Z" style="fill: rgb(255, 255, 255); transform-origin: 181.803px 433.587px;" id="el4dutlr5lsv1" class="animable"></path><polygon points="110.5 411.91 107.31 422.07 112.47 424.64 117.21 414.86 110.5 411.91" style="fill: rgb(255, 195, 189); transform-origin: 112.26px 418.275px;" id="elgszt2gy6mv9" class="animable"></polygon><path d="M122.25,438.27c1.45-2.95.69-4.5-.8-5.46s-6.19-6.12-6.19-6.12-.13-2.46-1-3.42-2.51-.47-2.51-.47l-3.39-2.17s0-2.18-1.08-1c-1.52,1.76-3.83,6.54-4.43,7.72Z" style="fill: rgb(38, 50, 56); transform-origin: 112.938px 428.775px;" id="el1xaudmm3vej" class="animable"></path><path d="M122.53,437.06,119,435.12l-15.56-8.52c-.2-.1,0-.4.21-.29l1,.58,0,0A3.55,3.55,0,0,0,106,422c-.11-.18.23-.36.33-.17a3.86,3.86,0,0,1-1.34,5.27l2.19,1.21,15.56,8.51C122.94,436.88,122.73,437.17,122.53,437.06Z" style="fill: rgb(64, 123, 255); transform-origin: 113.089px 429.417px;" id="el6aa9mv3p1e" class="animable"></path><path d="M113.65,427.42c1.4-.49,2.76-.09,3.2,1.11.08.2.42,0,.35-.15-.51-1.38-2.12-1.8-3.7-1.25-.23.08-.07.37.15.29Z" style="fill: rgb(255, 255, 255); transform-origin: 115.299px 427.755px;" id="el0o2blsftgbo" class="animable"></path><path d="M115,428.83c1.4-.49,2.76-.09,3.2,1.12.08.19.42,0,.35-.16-.51-1.38-2.12-1.8-3.7-1.25-.23.09-.08.37.15.29Z" style="fill: rgb(255, 255, 255); transform-origin: 116.647px 429.168px;" id="elm24rchensu" class="animable"></path><path d="M116.37,430.28c1.39-.49,2.75-.09,3.2,1.11.07.2.42,0,.35-.15-.51-1.38-2.12-1.8-3.7-1.25-.23.08-.08.37.15.29Z" style="fill: rgb(255, 255, 255); transform-origin: 118.017px 430.615px;" id="elfcr1kajoywi" class="animable"></path><path d="M149.11,289.13a346.9,346.9,0,0,0,5.69,40.21q1.42,7.37,3.27,15.72c-2.07,33.67,8.72,78.87,8.72,78.87l8.19-.18s2.78-52.09,2.74-79.36c-.07-44.68-4.07-87.25-4.07-87.25l-22.3-.08S147.28,263.77,149.11,289.13Z" style="fill: rgb(64, 123, 255); transform-origin: 163.179px 340.495px;" id="el7akajqvlnx9" class="animable"></path><g id="elki7v1bfr0m"><path d="M149.11,289.13a346.9,346.9,0,0,0,5.69,40.21q1.42,7.37,3.27,15.72c-2.07,33.67,8.72,78.87,8.72,78.87l8.19-.18s2.78-52.09,2.74-79.36c-.07-44.68-4.07-87.25-4.07-87.25l-22.3-.08S147.28,263.77,149.11,289.13Z" style="fill: rgb(255, 255, 255); opacity: 0.5; transform-origin: 163.179px 340.495px;" class="animable"></path></g><g id="elsdv6dhskhwf"><path d="M149.11,289.13a346.9,346.9,0,0,0,5.69,40.21c5.29-17.88-1.91-56-1.91-56Z" style="opacity: 0.2; transform-origin: 152.925px 301.34px;" class="animable"></path></g><path d="M156,264.16s-4.47,65.75-8.66,88.14l-30.69,67.09-7.49-4.21s13.57-61.4,22-72.07c0,0-7.82-56,0-81.19Z" style="fill: rgb(64, 123, 255); transform-origin: 132.58px 340.655px;" id="elgj1g0tbkodb" class="animable"></path><g id="elct7d4wxrkld"><path d="M156,264.16s-4.47,65.75-8.66,88.14l-30.69,67.09-7.49-4.21s13.57-61.4,22-72.07c0,0-7.82-56,0-81.19Z" style="fill: rgb(255, 255, 255); opacity: 0.5; transform-origin: 132.58px 340.655px;" class="animable"></path></g><polygon points="116.45 420.58 118.39 417.63 108.67 412.64 107.52 415.99 116.45 420.58" style="fill: rgb(38, 50, 56); transform-origin: 112.955px 416.61px;" id="elese1nyywci5" class="animable"></polygon><polygon points="175.86 425.68 176.23 422.17 165.31 422.17 165.81 425.68 175.86 425.68" style="fill: rgb(38, 50, 56); transform-origin: 170.77px 423.925px;" id="eleu61ohf8pvh" class="animable"></polygon><path d="M177.64,215.24c-.41,8.74,6.35,13.82-1.83,20-.79,7.28,2.45,21,.08,32.91a2.67,2.67,0,0,1-1.79,2c-6.1,1.93-27,.8-42.82-3.21a2.86,2.86,0,0,1-2.09-3.42c2.49-10.88,3.92-28.6,1.23-51.11a9.58,9.58,0,0,1,8.47-10.69c1.5-.16,3.08-.3,4.71-.38a119.4,119.4,0,0,1,17.19-.11c1.85.16,3.77.38,5.61.63a12.93,12.93,0,0,1,11.24,13.34" style="fill: rgb(64, 123, 255); transform-origin: 154.496px 236.021px;" id="elj0ag5hfhq3g" class="animable"></path><path d="M179.22,184.9c-.15-.55,5.1-5,.33-10.4a9.27,9.27,0,0,0-3.09-6,7.61,7.61,0,0,0-6-1.39s-.32-3.86-5.85-4.59a6.19,6.19,0,0,0-7,4.17s-5,.71-6.37,5.46a6.48,6.48,0,0,0,1.06,5.34s-3.35,3.9-2.53,6.84a5.71,5.71,0,0,0,3,3.4,4.61,4.61,0,0,0,2.37,5.09c3.19,1.57,9.94-2.84,9.94-2.84Z" style="fill: rgb(38, 50, 56); transform-origin: 165.599px 177.788px;" id="el084uoebocprv" class="animable"></path><path d="M158.56,166.36s3.57-2.44,1-4.81c0,0,.61-3.26-2.4-3.94s-3.74,1.75-3.74,1.75-.56-2.88-4.73-2.16-2.72,5.88-2.72,5.88a3.72,3.72,0,0,0-1.92,4.3,3.4,3.4,0,0,0,3.68,2.52s-1.14,2.93,1.23,3.67a5.28,5.28,0,0,0,4.12-.34Z" style="fill: rgb(38, 50, 56); transform-origin: 152.205px 165.461px;" id="elwxrlcpwo76" class="animable"></path><path d="M157.63,166.9a8.25,8.25,0,0,0-6.14,4.55,4.21,4.21,0,0,1,1.38-4.46c2.76-2.68,5.29-1.25,5.29-1.25Z" style="fill: rgb(64, 123, 255); transform-origin: 154.739px 168.404px;" id="elnkl09amxzre" class="animable"></path><path d="M164.06,204.57c0,.1,0,.19.06.28-.28,7.15-9,3-11.18-3.81,3.34-2.64,5.34-8.26,5.86-12.56l5.86,8.15,1.08,1.77a13.8,13.8,0,0,0-1.47,3A5.44,5.44,0,0,0,164.06,204.57Z" style="fill: rgb(255, 195, 189); transform-origin: 159.34px 198.532px;" id="elknby4gka9dh" class="animable"></path><g id="el3vsi69tbom2"><g style="opacity: 0.2; transform-origin: 163.27px 198.45px;" class="animable"><path d="M164.27,201.39a13.8,13.8,0,0,1,1.47-3l-1.08-1.77-3.86-1.11S161.64,199.74,164.27,201.39Z" id="elrupxd72iaor" class="animable" style="transform-origin: 163.27px 198.45px;"></path></g></g><path d="M158,180c-1,7.76-1.14,9.77,1.94,14.41,4.62,7,13.8,7.69,17,.36,2.89-6.61,4-18.2-2.84-22.62S159,172.21,158,180" style="fill: rgb(255, 195, 189); transform-origin: 168.28px 185.189px;" id="el2iwb86jx68l" class="animable"></path><path d="M170.66,192.93A2.75,2.75,0,0,0,172,193a.21.21,0,0,0,.15-.26.22.22,0,0,0-.26-.14,3.13,3.13,0,0,1-2.27-.65,2.58,2.58,0,0,1-.91-2.32.21.21,0,0,0-.2-.23.22.22,0,0,0-.22.2,3,3,0,0,0,1.07,2.68A3.47,3.47,0,0,0,170.66,192.93Z" style="fill: rgb(38, 50, 56); transform-origin: 170.213px 191.226px;" id="elhs93lw7iyx" class="animable"></path><path d="M162.43,176.86s1.47,4.16-.32,7.17-5.61-1.48-5.61-1.48S154.85,173.31,162.43,176.86Z" style="fill: rgb(38, 50, 56); transform-origin: 159.673px 180.558px;" id="elh4cq5ps7a6w" class="animable"></path><path d="M179.38,177.43s-.76,1.23-2.72-.39a7.41,7.41,0,0,1-1.71-1.92,2.18,2.18,0,0,1-2.33.2A4.46,4.46,0,0,1,171,173.8s-1.25,2.48-2.73,2.08a7.09,7.09,0,0,1-2.23-1s.65,2.24-1.3,2.84a3.09,3.09,0,0,1-2.93-.26S160.42,180,158,180s.11-6.44.11-6.44S173.42,162.91,179.38,177.43Z" style="fill: rgb(38, 50, 56); transform-origin: 168.166px 174.897px;" id="elovzktmbvep" class="animable"></path><path d="M168.94,184.82c-.12.63.12,1.2.53,1.27s.83-.37.95-1-.12-1.2-.53-1.27-.83.37-.95,1" style="fill: rgb(38, 50, 56); transform-origin: 169.68px 184.955px;" id="elqwv253bq1sj" class="animable"></path><path d="M175.43,186.19c-.11.63.12,1.2.53,1.27s.84-.37.95-1-.12-1.2-.53-1.27-.83.37-.95,1" style="fill: rgb(38, 50, 56); transform-origin: 176.17px 186.325px;" id="elxhjnk20ivsl" class="animable"></path><path d="M176.19,185.2l1.59-.16s-1,1-1.59.16" style="fill: rgb(38, 50, 56); transform-origin: 176.985px 185.288px;" id="eli76t2k74g9l" class="animable"></path><path d="M173.5,185.13s.77,1.85,1.68,3.51a1,1,0,0,1-.57,1.38,9.55,9.55,0,0,1-2.06.3Z" style="fill: rgb(237, 132, 126); transform-origin: 173.915px 187.725px;" id="el17jzy3vps1f" class="animable"></path><path d="M168.21,182.32a.37.37,0,0,0,.26-.15,3,3,0,0,1,2.37-1.28.39.39,0,0,0,.4-.35.39.39,0,0,0-.36-.4,3.73,3.73,0,0,0-3,1.59.37.37,0,0,0,.35.59" style="fill: rgb(38, 50, 56); transform-origin: 169.522px 181.232px;" id="eljktbg6eie4g" class="animable"></path><path d="M178.88,183.06a.38.38,0,0,0,.27-.07.37.37,0,0,0,.08-.52,3.72,3.72,0,0,0-3-1.59.38.38,0,0,0,0,.75,3,3,0,0,1,2.38,1.28.33.33,0,0,0,.25.15" style="fill: rgb(38, 50, 56); transform-origin: 177.607px 181.971px;" id="elqzkjtig9zai" class="animable"></path><path d="M169.7,183.83l1.58-.16s-1,1-1.58.16" style="fill: rgb(38, 50, 56); transform-origin: 170.49px 183.918px;" id="elya4q4bucu9" class="animable"></path><path d="M154.32,184.79a5.05,5.05,0,0,0,2.52,3.27c1.62.79,2.82-.92,2.69-2.91-.11-1.79-1.1-4.36-2.88-4.31s-2.8,2.13-2.33,3.95" style="fill: rgb(255, 195, 189); transform-origin: 156.873px 184.548px;" id="ellnip7nrpmwo" class="animable"></path><path d="M157,188.91a1.29,1.29,0,0,1-.92-2.4,1.29,1.29,0,0,1,.92,2.4Z" style="fill: rgb(255, 255, 255); transform-origin: 156.54px 187.71px;" id="el8vqfmpz3986" class="animable"></path><path d="M122.39,204.68s-5.7,4-6.22,6.82-1.42,9-1.42,9l4.58,0Z" style="fill: rgb(38, 50, 56); transform-origin: 118.57px 212.59px;" id="el8leedp35pbn" class="animable"></path><path d="M139.25,198.41l-.92-.4c.08-.18,1.91-4.28,5.91-4.55a5.73,5.73,0,0,1,5.56,3.2l-.92.39a4.62,4.62,0,0,0-4.58-2.59C140.92,194.68,139.27,198.37,139.25,198.41Z" style="fill: rgb(38, 50, 56); transform-origin: 144.065px 195.928px;" id="eleieihnme6jg" class="animable"></path><path d="M138.89,201.76s11.69,4.91,9.45,23.72-17.11,22.34-17.11,22.34a10.77,10.77,0,0,0-.33,5.6s18.82-3.26,22.48-22.48c4.14-21.76-5.7-29.67-5.7-29.67S142.45,199.1,138.89,201.76Z" style="fill: rgb(38, 50, 56); transform-origin: 142.536px 226.928px;" id="elq2wzf1vl2a" class="animable"></path><path d="M164.71,201.68c5.85,3.46,11.67,10,14.53,22.86,0,0,1.16-7-1.18-13.23C175.57,204.71,169.42,200.4,164.71,201.68Z" style="fill: rgb(38, 50, 56); transform-origin: 172.119px 212.997px;" id="el48afyg9y4zj" class="animable"></path><g id="elu39rqkks7cp"><rect x="148.63" y="229.8" width="28.96" height="28.96" style="fill: rgb(64, 123, 255); transform-origin: 163.11px 244.28px; transform: rotate(-167.61deg);" class="animable"></rect></g><g id="el0omc5eu8n77"><rect x="148.63" y="229.8" width="28.96" height="28.96" style="fill: rgb(255, 255, 255); opacity: 0.5; transform-origin: 163.11px 244.28px; transform: rotate(-167.61deg);" class="animable"></rect></g><polygon points="180.35 233.25 195.75 223 189.5 253.42 174.14 261.53 180.35 233.25" style="fill: rgb(64, 123, 255); transform-origin: 184.945px 242.265px;" id="el412m0mcwfvp" class="animable"></polygon><g id="elidpuru0w81"><polygon points="180.35 233.25 195.75 223 189.5 253.42 174.14 261.53 180.35 233.25" style="fill: rgb(255, 255, 255); opacity: 0.4; transform-origin: 184.945px 242.265px;" class="animable"></polygon></g><path d="M129.62,212.47a158.81,158.81,0,0,0-11.2,11.87c-1.79,2.08-3.5,4.24-5.19,6.52-.83,1.14-1.65,2.32-2.45,3.6-.4.64-.8,1.31-1.19,2l-.29.56-.15.28-.07.14-.15.32a7.11,7.11,0,0,0-.64,3.79,6.61,6.61,0,0,0,.64,2.2c.08.17.17.34.26.49l.26.4a5.68,5.68,0,0,0,.57.71,7.74,7.74,0,0,0,2.06,1.63,12.63,12.63,0,0,0,3,1.17,27.7,27.7,0,0,0,4.74.73,70.57,70.57,0,0,0,8.47,0,130.84,130.84,0,0,0,16.23-1.84l-.41-5.8c-5.22-.26-10.51-.57-15.63-1-2.54-.26-5.09-.54-7.41-1a21.67,21.67,0,0,1-3.07-.81c-.39-.15-.7-.34-.64-.35s.16,0,.51.39a2.67,2.67,0,0,1,.26.32,1.37,1.37,0,0,1,.13.2,2,2,0,0,1,.14.25,4,4,0,0,1,.38,1.26,3.76,3.76,0,0,1-.25,1.86.94.94,0,0,0,0,.1l0-.08.09-.15.2-.31c.29-.43.61-.88,1-1.34.69-.92,1.47-1.87,2.27-2.81,1.59-1.91,3.33-3.79,5.07-5.68s3.54-3.78,5.34-5.65,3.64-3.77,5.38-5.61Z" style="fill: rgb(255, 195, 189); transform-origin: 126.385px 230.739px;" id="elsl7wwmu4kx" class="animable"></path><path d="M143.61,217.53l-9.28,9.87-11.72-10.76,7.61-8.93a12.23,12.23,0,0,1,4.87-3.6l.06,0a9.33,9.33,0,0,1,2.68-.37,4.26,4.26,0,0,1,.5,0l.51,0a7.66,7.66,0,0,1,4.22,1.84,8.33,8.33,0,0,1,2.25,3.19A8.53,8.53,0,0,1,143.61,217.53Z" style="fill: rgb(64, 123, 255); transform-origin: 134.232px 215.566px;" id="el18va8jeolac" class="animable"></path><g id="elvuyvs6qtyvm"><path d="M143.61,217.53l-9.28,9.87-11.72-10.76,7.61-8.93a12.23,12.23,0,0,1,4.87-3.6l.06,0a7.66,7.66,0,0,1,2.68-.37,4.26,4.26,0,0,1,.5,0l.51,0a7.66,7.66,0,0,1,4.22,1.84,8.33,8.33,0,0,1,2.25,3.19A8.53,8.53,0,0,1,143.61,217.53Z" style="opacity: 0.2; transform-origin: 134.232px 215.566px;" class="animable"></path></g><path d="M149.83,237.24l.42-1.9a12.82,12.82,0,0,0-3.8,2,33.23,33.23,0,0,0-2.65,4l.49,5.67a31.81,31.81,0,0,0,6.33-.28c2.87-.5,5.43-4.77,5.59-5.74s3.14-2.14,2.24-2.83-8.62-.85-8.62-.85Z" style="fill: rgb(255, 195, 189); transform-origin: 151.21px 241.2px;" id="el2g53mvldg7u" class="animable"></path><path d="M217.35,285.62s-3.06.36-4.48-.56-1.65-4.13-1.65-4.13S215.64,283.49,217.35,285.62Z" style="fill: rgb(255, 195, 189); transform-origin: 214.285px 283.31px;" id="el9m23zjif6he" class="animable"></path><g id="elnxt7xmab6wn"><path d="M217.35,285.62s-3.06.36-4.48-.56-1.65-4.13-1.65-4.13S215.64,283.49,217.35,285.62Z" style="opacity: 0.2; transform-origin: 214.285px 283.31px;" class="animable"></path></g><path d="M214.63,284.8a12.93,12.93,0,0,0-3.14-3.39c-.75,1.37,0,3.94-.66,4.38s-1.43-1.23-2.19-3.85c-.38-1.36-1.73-2-2-3.81a14,14,0,0,1-.19-2.3c1-1.71,6.18-2.24,6.18-2.24l2.36,4a46,46,0,0,1,2.56,6.7c.31,1.8,2.42,6.76,1.63,6.93C218.05,291.46,216.23,288,214.63,284.8Z" style="fill: rgb(255, 195, 189); transform-origin: 212.903px 282.411px;" id="elcileznveiue" class="animable"></path></g><defs>     <filter id="active" height="200%">         <feMorphology in="SourceAlpha" result="DILATED" operator="dilate" radius="2"></feMorphology>                <feFlood flood-color="#32DFEC" flood-opacity="1" result="PINK"></feFlood>        <feComposite in="PINK" in2="DILATED" operator="in" result="OUTLINE"></feComposite>        <feMerge>            <feMergeNode in="OUTLINE"></feMergeNode>            <feMergeNode in="SourceGraphic"></feMergeNode>        </feMerge>    </filter>    <filter id="hover" height="200%">        <feMorphology in="SourceAlpha" result="DILATED" operator="dilate" radius="2"></feMorphology>                <feFlood flood-color="#ff0000" flood-opacity="0.5" result="PINK"></feFlood>        <feComposite in="PINK" in2="DILATED" operator="in" result="OUTLINE"></feComposite>        <feMerge>            <feMergeNode in="OUTLINE"></feMergeNode>            <feMergeNode in="SourceGraphic"></feMergeNode>        </feMerge>            <feColorMatrix type="matrix" values="0   0   0   0   0                0   1   0   0   0                0   0   0   0   0                0   0   0   1   0 "></feColorMatrix>    </filter></defs></svg>