<svg class="animated" id="freepik_stories-treasure" xmlns="http://www.w3.org/2000/svg" viewBox="0 0 500 500" version="1.1" xmlns:xlink="http://www.w3.org/1999/xlink" xmlns:svgjs="http://svgjs.com/svgjs"><style>svg#freepik_stories-treasure:not(.animated) .animable {opacity: 0;}svg#freepik_stories-treasure.animated #freepik--Treasure--inject-149 {animation: 1.5s Infinite  linear heartbeat;animation-delay: 0s;}            @keyframes heartbeat {                0% {                    transform: scale(1);                }                10% {                    transform: scale(1.1);                }                30% {                    transform: scale(1);                }                40% {                    transform: scale(1);                }                50% {                    transform: scale(1.1);                }                60% {                    transform: scale(1);                }                100% {                    transform: scale(1);                }            }        </style><g id="freepik--background-complete--inject-149" class="animable" style="transform-origin: 262.143px 254.588px;"><path d="M61.22,329.89s-7.15,1-3.06,16.68,7.54,23.71,7.54,23.71.56,3.55-2.31,3.45-8.7-2.39-10.66.71S52.5,381.5,57,385.52s14.06,13.17,14.92,14,1.49,2.56-.47,2.8S55.57,401,55.22,407.66s14,15.78,15.6,16.81,1.8,1.84,1.46,2.74-5-.07-9-.35-8.65.09-8.52,3.94,7.7,13.57,29.72,20.71l10.41,2.64,7.66-7.61c15.39-17.29,17-29.5,15.18-32.89s-6.06-1.35-9.35.91-6.8,5.43-7.56,4.82-.94-1.42-.12-3.1,8.63-16.82,5-22.39S90.81,396.72,89,397.5s-2.13-1.05-1.81-2.18,3.93-13.89,5.79-19.63,1.48-10-1.9-11.72-7.15,3.25-9.57,4.78-3.73-1.81-3.73-1.81-1.1-8.7-5.48-24.27-11.22-12.74-11.22-12.74" style="fill: rgb(235, 235, 235); transform-origin: 85.1294px 391.939px;" id="elktgcqdz2cxr" class="animable"></path><path d="M94.94,456.74c-3.17-11.45-8.46-31.89-13.1-49.42s-8.84-33.38-12-44.85l-3.7-13.57c-.43-1.59-.77-2.83-1-3.69l-.26-1c-.05-.22-.07-.33-.07-.33s0,.1.11.32.16.54.28.95c.25.85.6,2.09,1.06,3.68.92,3.19,2.22,7.82,3.8,13.54,3.17,11.45,7.42,27.3,12,44.82s9.89,38,13,49.45" style="fill: rgb(224, 224, 224); transform-origin: 79.935px 400.31px;" id="elfdutqlen9i" class="animable"></path><path d="M60.77,378a3.46,3.46,0,0,1,.69.36c.43.25,1,.63,1.8,1.11,1.5,1,3.55,2.34,5.78,3.9l5.7,4,1.73,1.2a4,4,0,0,1,.62.47,3.46,3.46,0,0,1-.69-.36c-.43-.25-1.05-.63-1.8-1.12-1.49-1-3.52-2.38-5.75-3.94l-5.72-4-1.74-1.2A4,4,0,0,1,60.77,378Z" style="fill: rgb(224, 224, 224); transform-origin: 68.93px 383.52px;" id="el015sw47bdeso" class="animable"></path><path d="M78,388.54c-.07-.05,2.58-4.39,5.94-9.7s6.14-9.58,6.21-9.53-2.57,4.4-5.93,9.71S78,388.59,78,388.54Z" style="fill: rgb(224, 224, 224); transform-origin: 84.075px 378.925px;" id="el10d6fuvt81f" class="animable"></path><path d="M83.86,415.77s.18-.21.56-.55L86,413.79c1.36-1.21,3.24-2.88,5.24-4.81s3.76-3.72,5-5l1.49-1.55a4,4,0,0,1,.58-.55,3.76,3.76,0,0,1-.48.64c-.33.39-.81.95-1.42,1.63-1.22,1.35-3,3.19-5,5.11S87.6,412.8,86.19,414c-.7.58-1.28,1-1.68,1.35A3.64,3.64,0,0,1,83.86,415.77Z" style="fill: rgb(224, 224, 224); transform-origin: 91.085px 408.825px;" id="elxmw0dep6ey" class="animable"></path><path d="M66.21,409.64a3.31,3.31,0,0,1,.72.17l1.9.58c1.61.5,3.82,1.22,6.26,2s4.64,1.57,6.23,2.13l1.87.68a3.32,3.32,0,0,1,.67.29,3.32,3.32,0,0,1-.71-.17l-1.91-.58c-1.61-.5-3.82-1.22-6.26-2s-4.63-1.57-6.22-2.13l-1.87-.68A2.71,2.71,0,0,1,66.21,409.64Z" style="fill: rgb(224, 224, 224); transform-origin: 75.035px 412.565px;" id="el79gbcff3atq" class="animable"></path><path d="M68.37,434.34a5.1,5.1,0,0,1,.91.23l2.45.73c2.06.64,4.9,1.54,8,2.55s6,1.94,8,2.63l2.41.84a4.55,4.55,0,0,1,.87.35,5.34,5.34,0,0,1-.91-.23l-2.45-.73c-2.06-.64-4.9-1.53-8-2.55s-6-1.94-8-2.63l-2.42-.84A3.85,3.85,0,0,1,68.37,434.34Z" style="fill: rgb(224, 224, 224); transform-origin: 79.69px 438.005px;" id="el5c6n46tsfrd" class="animable"></path><path d="M90.57,441.34a5,5,0,0,1,.7-.72l2-1.89c1.68-1.59,4-3.8,6.45-6.31s4.66-4.83,6.23-6.53l1.86-2a5.24,5.24,0,0,1,.71-.71,5.77,5.77,0,0,1-.61.8c-.41.5-1,1.21-1.78,2.08-1.53,1.74-3.69,4.09-6.17,6.61s-4.81,4.7-6.52,6.25c-.86.77-1.57,1.39-2.06,1.81A7.19,7.19,0,0,1,90.57,441.34Z" style="fill: rgb(224, 224, 224); transform-origin: 99.545px 432.26px;" id="elhxf5ifvzq9w" class="animable"></path><path d="M397.71,455.12c-22-12.57-29.19-39-30.58-63.23-.23-4-1.06-8.25.53-12s5.85-6.53,9.61-5.16c3.13,1.13,4.75,4.49,6.69,7.22a23.64,23.64,0,0,0,10.28,8.17c2.68,1.09,5.93,1.62,8.34,0,3.3-2.24,3.27-7.08,2.88-11.09l-2.19-22.4c-.39-4-.77-8.1.13-12s3.33-7.7,7-9.12,8.64.35,9.8,4.2c.48,1.61.31,3.33.57,5s1.21,3.43,2.83,3.75,3.14-1,4.23-2.24c3.77-4.43,6.1-9.9,8.25-15.33s4.22-11,7.57-15.72,8.22-8.73,13.93-9.58,12.16,2.13,14.12,7.64-.8,11.55-4,16.45a89.61,89.61,0,0,1-17,19.47c-1.18,1-2.46,2.1-2.81,3.63-.63,2.75,2.15,5.18,4.87,5.82,3.08.72,6.29.11,9.45.19s6.67,1.15,8.13,4c2,4-1,8.56-4.14,11.68a77,77,0,0,1-21.49,15.17c-2.85,1.35-5.87,2.58-8,4.87s-3.3,6-1.6,8.71,5.46,3.26,8.5,2.41,5.65-2.79,8.49-4.17c5.32-2.58,12.47-2.85,16.43,1.59,2.61,2.92,3.21,7.26,2.38,11.09s-2.92,7.27-5.17,10.47c-7.89,11.16-18.43,20.54-30.81,26.14s-24.1,7.88-37.23,4.39" style="fill: rgb(235, 235, 235); transform-origin: 419.532px 381.123px;" id="elb110yplfgy" class="animable"></path><path d="M402.56,439.42a358.68,358.68,0,0,1,10.73-40l3.35-10.34c1.1-3.39,2.2-6.75,3.48-10a179.35,179.35,0,0,1,8.4-18.09c3-5.62,6-10.86,8.79-15.72S442.92,336,445.6,332a143.28,143.28,0,0,1,14-17.82c1.82-2,3.27-3.45,4.27-4.44L465,308.6a2.47,2.47,0,0,1,.41-.36,2.47,2.47,0,0,1-.36.41L464,309.82c-1,1-2.39,2.54-4.17,4.53A151.66,151.66,0,0,0,446,332.28c-2.64,4-5.36,8.48-8.19,13.35s-5.8,10.12-8.72,15.73a183.69,183.69,0,0,0-8.33,18c-1.26,3.21-2.35,6.54-3.45,9.94L414,399.67a369.07,369.07,0,0,0-10.76,39.88" style="fill: rgb(224, 224, 224); transform-origin: 433.985px 373.895px;" id="elivp8hbysna" class="animable"></path><path d="M420.33,379.08a7.9,7.9,0,0,1-.55-1.67c-.31-1.09-.71-2.68-1.18-4.65-.93-3.94-2-9.42-3.22-15.48S413,345.78,412,341.86c-.48-2-.9-3.54-1.19-4.63a7.68,7.68,0,0,1-.39-1.72,8.32,8.32,0,0,1,.66,1.64c.38,1.06.87,2.63,1.43,4.57,1.12,3.9,2.38,9.36,3.58,15.42s2.2,11.38,3,15.51c.37,1.86.69,3.43.94,4.69A8.13,8.13,0,0,1,420.33,379.08Z" style="fill: rgb(224, 224, 224); transform-origin: 415.375px 357.295px;" id="el6nsk3d4skuo" class="animable"></path><path d="M471,364.74a11.66,11.66,0,0,1-2,.43c-1.32.24-3.22.58-5.55,1.07-4.67.94-11.09,2.46-18.09,4.46s-13.25,4.09-17.73,5.73c-2.25.8-4,1.5-5.3,2a10.33,10.33,0,0,1-2,.67,10.81,10.81,0,0,1,1.85-.94c1.22-.56,3-1.34,5.23-2.21,4.44-1.77,10.69-3.94,17.71-6a184.76,184.76,0,0,1,18.19-4.25c2.36-.43,4.28-.69,5.6-.83A10.72,10.72,0,0,1,471,364.74Z" style="fill: rgb(224, 224, 224); transform-origin: 445.665px 371.917px;" id="elirrct8h82m9" class="animable"></path><path d="M403.11,438.41a2.85,2.85,0,0,1-.41-.6c-.29-.48-.63-1.07-1.05-1.78-.91-1.55-2.16-3.83-3.67-6.67-3-5.68-7-13.66-11.19-22.51s-8.07-16.86-11-22.6l-3.46-6.78-.93-1.85a2.83,2.83,0,0,1-.28-.67,2.75,2.75,0,0,1,.41.6c.29.48.63,1.07,1.06,1.78.9,1.56,2.15,3.84,3.67,6.68,3,5.68,7,13.65,11.18,22.51s8.08,16.86,11,22.59l3.46,6.78.93,1.85A3.28,3.28,0,0,1,403.11,438.41Z" style="fill: rgb(224, 224, 224); transform-origin: 387.115px 406.68px;" id="el7nmo7uklswv" class="animable"></path><path d="M469.58,410.08a2.78,2.78,0,0,1-.65.34l-1.93.85-7.12,3c-6,2.58-14.26,6.23-23.38,10.28s-17.43,7.62-23.49,10.07c-3,1.23-5.5,2.2-7.21,2.83l-2,.72a2.27,2.27,0,0,1-.71.2,3.1,3.1,0,0,1,.65-.34l1.93-.85,7.12-3.05c6-2.57,14.27-6.22,23.39-10.27s17.42-7.63,23.48-10.08c3-1.22,5.5-2.19,7.22-2.82l2-.72A2.27,2.27,0,0,1,469.58,410.08Z" style="fill: rgb(224, 224, 224); transform-origin: 436.335px 424.225px;" id="el9bu134nb2ph" class="animable"></path><path d="M112.92,150a25.3,25.3,0,1,1-9.14-34.56A25.28,25.28,0,0,1,112.92,150Z" style="fill: rgb(245, 245, 245); transform-origin: 91.0433px 137.298px;" id="ellge10bgfzb" class="animable"></path><path d="M107.72,147a19.28,19.28,0,1,1-7-26.34A19.27,19.27,0,0,1,107.72,147Z" style="fill: rgb(235, 235, 235); transform-origin: 91.0405px 137.333px;" id="eldupr4ozr5hm" class="animable"></path><path d="M108,146.43a11.49,11.49,0,0,1,.73-2.26,20.45,20.45,0,0,0,1-6.22,19.79,19.79,0,0,0-.44-4.32,19.38,19.38,0,0,0-1.67-4.66,17.06,17.06,0,0,0-1.39-2.29,17.87,17.87,0,0,0-1.77-2.15,18.94,18.94,0,0,0-2.15-1.93,20.19,20.19,0,0,0-2.5-1.62,19.82,19.82,0,0,0-2.72-1.21,18.79,18.79,0,0,0-5.56-1.06,18.23,18.23,0,0,0-2.68.09,19,19,0,0,0-8.67,3.13,20.27,20.27,0,0,0-4.64,4.28c-.94,1.18-1.39,1.9-1.5,1.85a5.87,5.87,0,0,1,1-2.18,17.89,17.89,0,0,1,4.5-4.81,19.46,19.46,0,0,1,4-2.26,19.24,19.24,0,0,1,5.12-1.36,18.09,18.09,0,0,1,2.87-.15,19.3,19.3,0,0,1,3,.3,18.31,18.31,0,0,1,3,.79,20.65,20.65,0,0,1,2.94,1.29,20.41,20.41,0,0,1,2.69,1.76,20.07,20.07,0,0,1,2.31,2.09,18.8,18.8,0,0,1,1.88,2.35,17.91,17.91,0,0,1,1.45,2.49,19.63,19.63,0,0,1,1.66,5,19.84,19.84,0,0,1,.28,4.59,17.77,17.77,0,0,1-1.57,6.39C108.63,145.79,108.1,146.47,108,146.43Z" style="fill: rgb(224, 224, 224); transform-origin: 92.4051px 131.862px;" id="elc8gtku0sa9" class="animable"></path><path d="M87.15,148.28,85.5,151.2l-2.61-1.47,1.61-2.85a14.18,14.18,0,0,1-5.33-5.76l3.23-2.37a12.27,12.27,0,0,0,4,4.71l2.46-4.36c-2.51-2.34-5.2-5.14-3.09-8.87,1.56-2.77,4.91-4,9.3-2.16l1.64-2.9,2.61,1.48-1.6,2.84a13.59,13.59,0,0,1,4.4,4.59L99,136.56a12.27,12.27,0,0,0-3.23-3.62l-2.5,4.44c2.51,2.32,5.15,5.08,3.08,8.76C94.84,148.86,91.53,150.09,87.15,148.28Zm3.9-13,2.09-3.71c-1.56-.47-2.53,0-3,.84S90.11,134.24,91.05,135.26Zm.94,8.83c.52-.92,0-1.84-.86-2.87l-2,3.61C90.57,145.28,91.52,144.92,92,144.09Z" style="fill: rgb(224, 224, 224); transform-origin: 90.645px 138.185px;" id="ely663j22lcxq" class="animable"></path><path d="M259.06,91.2a43.93,43.93,0,1,1-49.77-37.05A43.87,43.87,0,0,1,259.06,91.2Z" style="fill: rgb(245, 245, 245); transform-origin: 215.602px 97.6201px;" id="elvh58uhc0pd8" class="animable"></path><path d="M248.72,92.7a33.47,33.47,0,1,1-37.93-28.23A33.43,33.43,0,0,1,248.72,92.7Z" style="fill: rgb(235, 235, 235); transform-origin: 215.609px 97.5885px;" id="eltakba8p807b" class="animable"></path><path d="M248.56,91.67c-.2,0-.56-1.4-1.46-3.86a35.46,35.46,0,0,0-5.29-9.6,34.88,34.88,0,0,0-5.26-5.38,33.54,33.54,0,0,0-7.32-4.52,30.1,30.1,0,0,0-4.36-1.61,31.37,31.37,0,0,0-4.74-1,31.77,31.77,0,0,0-5-.29,36.3,36.3,0,0,0-5.15.49,35.61,35.61,0,0,0-5,1.31,32.07,32.07,0,0,0-4.6,2,32.67,32.67,0,0,0-4.1,2.58,30.73,30.73,0,0,0-3.54,3,33.26,33.26,0,0,0-5.31,6.76,34.2,34.2,0,0,0-4.75,17.7c0,2.61.16,4.08,0,4.12s-.65-1.39-1-4.07a31.17,31.17,0,0,1,.92-11.39,33.6,33.6,0,0,1,8.46-14.79,32.4,32.4,0,0,1,3.75-3.3A33.91,33.91,0,0,1,199.19,67a35.55,35.55,0,0,1,4.95-2.19,36.88,36.88,0,0,1,5.4-1.41,36.05,36.05,0,0,1,5.54-.53,33.31,33.31,0,0,1,5.41.36,32.21,32.21,0,0,1,5.09,1.15,31.6,31.6,0,0,1,4.65,1.81,33.57,33.57,0,0,1,13,11,31.22,31.22,0,0,1,4.79,10.38C248.69,90.14,248.7,91.64,248.56,91.67Z" style="fill: rgb(224, 224, 224); transform-origin: 215.072px 83.1185px;" id="elemba7ip64f6" class="animable"></path><path d="M222.21,116.73l.92,5.76-5.14.82-.9-5.6c-5.13.5-10.27-.31-13.45-2.07l1.82-6.72A21,21,0,0,0,216,111l-1.38-8.58c-5.93-.48-12.61-1.36-13.78-8.71-.87-5.45,2.33-10.76,10.31-13L210.25,75l5.14-.82.9,5.6a23.63,23.63,0,0,1,10.94,1.46L225.67,88a21.37,21.37,0,0,0-8.29-1.42l1.4,8.74c5.92.43,12.49,1.33,13.65,8.57C233.29,109.21,230.12,114.46,222.21,116.73Zm-8.78-21.9-1.17-7.3c-2.62,1.06-3.46,2.72-3.19,4.42S211.05,94.48,213.43,94.83Zm10.83,11c-.29-1.8-1.94-2.53-4.27-3l1.13,7.09C223.6,109,224.52,107.45,224.26,105.8Z" style="fill: rgb(224, 224, 224); transform-origin: 216.634px 98.745px;" id="el6mug8w3nr79" class="animable"></path><path d="M108.69,85.86a16.78,16.78,0,1,1,18.3-15A16.76,16.76,0,0,1,108.69,85.86Z" style="fill: rgb(245, 245, 245); transform-origin: 110.297px 69.158px;" id="elgmon5vdfm6u" class="animable"></path><path d="M109.08,81.89a12.78,12.78,0,1,1,14-11.47A12.78,12.78,0,0,1,109.08,81.89Z" style="fill: rgb(235, 235, 235); transform-origin: 110.361px 69.1744px;" id="elxx8onk8zm1n" class="animable"></path><path d="M109.48,81.93a7.15,7.15,0,0,1,1.56-.19,13.42,13.42,0,0,0,4-1.08,12.93,12.93,0,0,0,2.48-1.46,12.36,12.36,0,0,0,2.35-2.29,11.86,11.86,0,0,0,1-1.47,12.76,12.76,0,0,0,.81-1.66,12.54,12.54,0,0,0,.57-1.83,12.68,12.68,0,0,0,.28-2,11.77,11.77,0,0,0,0-2,11.65,11.65,0,0,0-.32-1.89,11.31,11.31,0,0,0-.57-1.76,11.82,11.82,0,0,0-.8-1.59,12.69,12.69,0,0,0-2-2.59,13.16,13.16,0,0,0-2.26-1.77,13.42,13.42,0,0,0-3.86-1.61,8.09,8.09,0,0,1-1.52-.39,3.58,3.58,0,0,1,1.59,0,11.94,11.94,0,0,1,4.14,1.39,12.89,12.89,0,0,1,4.7,4.5,12.27,12.27,0,0,1,.89,1.69,13,13,0,0,1,.64,1.88,12.43,12.43,0,0,1,.36,2,15.1,15.1,0,0,1,0,2.13,13.13,13.13,0,0,1-.32,2.1,12.23,12.23,0,0,1-.62,2,12,12,0,0,1-.9,1.79,11.77,11.77,0,0,1-1.1,1.56A12.69,12.69,0,0,1,118,79.86a13.13,13.13,0,0,1-2.69,1.44,11.76,11.76,0,0,1-4.29.82A4,4,0,0,1,109.48,81.93Z" style="fill: rgb(224, 224, 224); transform-origin: 116.519px 69.1955px;" id="eledv25f8v2ud" class="animable"></path><path d="M102.61,69.86l-2.22-.19.16-2,2.16.18a9.52,9.52,0,0,1,2-4.8L107,64.36a8,8,0,0,0-1.73,3.73l3.31.28c.72-2.16,1.66-4.55,4.49-4.31,2.1.18,3.78,1.85,3.87,5l2.2.19-.17,2-2.16-.18A8.91,8.91,0,0,1,115.3,75L113,73.78a8.25,8.25,0,0,0,1.29-2.94l-3.37-.29c-.7,2.16-1.64,4.51-4.43,4.28C104.38,74.65,102.72,73,102.61,69.86Zm8.92-1.25,2.81.24c-.15-1.07-.68-1.53-1.34-1.59S111.88,67.77,111.53,68.61Zm-5.06,3c.69.06,1.12-.49,1.49-1.31l-2.74-.23C105.36,71.09,105.83,71.57,106.47,71.62Z" style="fill: rgb(224, 224, 224); transform-origin: 109.765px 69.025px;" id="el8c4j1bvzgbt" class="animable"></path><path d="M459.33,68.68c.45-3.28-4.18-6-7.65-6.26-1.66-.14-3.39.12-5-.43-3.4-1.19-4.76-5.59-8.08-7-2.49-1-5.35-.11-7.76,1.1s-4.78,2.74-7.47,2.91c-2.34.15-4.88-.72-6.93.42-1.53.86-2.33,2.61-3.73,3.65a8.84,8.84,0,0,1-4.88,1.32,13.94,13.94,0,0,0-5,.82c-1.55.72-2.84,2.36-2.51,4Z" style="fill: rgb(224, 224, 224); transform-origin: 429.814px 61.8839px;" id="elra9mxkxdoy" class="animable"></path><path d="M402.52,91.68c.65-4.71-6-8.59-11-9-2.38-.19-4.86.17-7.12-.61-4.89-1.71-6.84-8-11.62-10-3.57-1.51-7.68-.17-11.14,1.57s-6.87,3.94-10.74,4.18c-3.36.22-7-1-10,.61-2.19,1.23-3.34,3.75-5.36,5.24s-4.55,1.77-7,1.9-5,.16-7.23,1.18-4.08,3.39-3.62,5.8Z" style="fill: rgb(235, 235, 235); transform-origin: 360.092px 81.9821px;" id="elg1bw7ixroe" class="animable"></path></g><g id="freepik--Plant--inject-149" class="animable" style="transform-origin: 54.1746px 430.405px;"><path d="M45.17,403.74a10.36,10.36,0,0,1,7,4.18,18.37,18.37,0,0,1,3.18,7.65c1.05,5.3-.22,11.37-2,16.45-5.49-2.39-8.56-8.62-9.92-11.88-2.15-5.16-2.9-15.77,1.81-16.4" style="fill: #407BFF; transform-origin: 48.7388px 417.88px;" id="elokm8w85vv39" class="animable"></path><path d="M61,438.86a8.86,8.86,0,0,1,.18-8.89,11.8,11.8,0,0,1,7.45-5.22,5,5,0,0,1,4.15.48A3.79,3.79,0,0,1,74,428.87a7.6,7.6,0,0,1-1.86,3.53c-3,3.53-6.52,6.39-11.14,6.46" style="fill: #407BFF; transform-origin: 66.9868px 431.681px;" id="ellqg2kufgj9" class="animable"></path><path d="M60.43,456.28a5.78,5.78,0,0,1-.18-1.1c-.1-.78-.23-1.79-.39-3a31.46,31.46,0,0,1,0-10,19,19,0,0,1,4.31-9,12.67,12.67,0,0,1,2.28-2,6.42,6.42,0,0,1,.7-.43c.16-.1.25-.14.26-.13a19.8,19.8,0,0,0-3,2.76,19.56,19.56,0,0,0-4.13,8.87,33.17,33.17,0,0,0-.16,9.89c.12,1.27.21,2.3.26,3A7.76,7.76,0,0,1,60.43,456.28Z" style="fill: rgb(38, 50, 56); transform-origin: 63.4351px 443.449px;" id="elmcv0tm8l6u" class="animable"></path><path d="M46.46,411.77a2.9,2.9,0,0,1,.2.45c.13.33.29.76.49,1.29.43,1.12,1,2.76,1.74,4.78,1.43,4,3.33,9.68,5.29,15.93s3.61,12,4.74,16.11c.57,2.08,1,3.76,1.3,4.92q.21.83.33,1.35a2.83,2.83,0,0,1,.09.47,2,2,0,0,1-.16-.45c-.11-.34-.24-.78-.4-1.33-.35-1.2-.84-2.85-1.43-4.88-1.2-4.12-2.88-9.81-4.84-16.07s-3.82-11.89-5.18-16c-.67-2-1.22-3.64-1.62-4.82-.17-.54-.32-1-.43-1.32A2.43,2.43,0,0,1,46.46,411.77Z" style="fill: rgb(38, 50, 56); transform-origin: 53.55px 434.42px;" id="elpox5bm3s1r" class="animable"></path><path d="M54.51,444.34a20.72,20.72,0,0,0-15.39-11c-1.65-.23-3.67-.08-4.51,1.36s0,3.29,1.08,4.59a17.72,17.72,0,0,0,18.85,5.55" style="fill: #407BFF; transform-origin: 44.4039px 439.446px;" id="el4an6ouqlbk7" class="animable"></path><path d="M41.36,437.92a5,5,0,0,1,1,.1,11.77,11.77,0,0,1,1.21.23c.46.12,1,.2,1.57.4a19.22,19.22,0,0,1,1.86.66,18.47,18.47,0,0,1,2.06.94,23.06,23.06,0,0,1,4.28,2.94,22.65,22.65,0,0,1,3.44,3.89A17.85,17.85,0,0,1,58,449a15.72,15.72,0,0,1,.85,1.78c.26.55.4,1.08.57,1.53a9.15,9.15,0,0,1,.33,1.18,5.92,5.92,0,0,1,.21,1c-.09,0-.39-1.44-1.36-3.62a17.81,17.81,0,0,0-.88-1.74c-.33-.62-.75-1.23-1.19-1.89a23.13,23.13,0,0,0-3.4-3.8,23.83,23.83,0,0,0-4.19-2.91,21.28,21.28,0,0,0-2-1,16.93,16.93,0,0,0-1.82-.69C42.83,438.18,41.35,438,41.36,437.92Z" style="fill: rgb(38, 50, 56); transform-origin: 50.66px 446.205px;" id="el81w21z0nxjd" class="animable"></path></g><g id="freepik--Treasure--inject-149" class="animable" style="transform-origin: 176.312px 307.057px;"><polygon points="185.05 319.85 202.4 236.46 188.46 320.48 234.76 249 191.41 322.31 260.41 272.38 193.5 325.08 275.88 303.45 194.45 328.42 266.24 337.08 194.13 331.87 268.04 371.05 192.58 334.98 248.67 399.07 190.02 337.32 219.16 417.35 186.78 338.57 185.05 423.72 183.31 338.57 150.93 417.35 180.08 337.32 121.43 399.07 177.51 334.98 100.52 371.38 175.97 331.87 95.67 337.48 175.64 328.42 94.22 303.45 176.59 325.08 109.69 272.38 178.69 322.31 135.34 249 181.64 320.48 167.69 236.46 185.05 319.85" style="fill: #407BFF; transform-origin: 185.05px 330.09px;" id="elvwycm2hkrq" class="animable"></polygon><g id="elpw87xxeq4s"><polygon points="185.05 319.85 202.4 236.46 188.46 320.48 234.76 249 191.41 322.31 260.41 272.38 193.5 325.08 275.88 303.45 194.45 328.42 264.46 336.35 194.13 331.87 268.39 371.11 192.58 334.98 248.67 399.07 190.02 337.32 219.16 417.35 186.78 338.57 185.05 423.72 183.31 338.57 150.93 417.35 180.08 337.32 121.43 399.07 177.51 334.98 100.52 371.38 175.97 331.87 95.67 337.48 175.64 328.42 94.22 303.45 176.59 325.08 109.69 272.38 178.69 322.31 135.34 249 181.64 320.48 167.69 236.46 185.05 319.85" style="fill: rgb(255, 255, 255); opacity: 0.9; transform-origin: 185.05px 330.09px;" class="animable" id="el757brlmoaaq"></polygon></g><polygon points="180.57 305.04 186.05 257.99 190.1 305.19 212.21 263.29 198.93 308.76 234.68 277.68 205.88 315.29 250.44 299.23 210 323.89 257.36 325 210.74 333.39 254.49 351.54 207.99 342.52 242.24 375.25 202.13 350.04 222.24 392.93 193.95 354.94 197.21 402.2 184.55 356.55 170.52 401.79 175.21 354.65 145.78 391.77 167.18 349.51 126.33 373.5 161.55 341.82 114.8 349.43 159.08 332.61 112.74 322.81 160.11 323.13 120.43 297.25 164.49 314.67 136.83 276.2 171.63 308.35 159.74 262.5 180.57 305.04" style="fill: #407BFF; transform-origin: 185.05px 330.095px;" id="el55j6ap2cu5d" class="animable"></polygon><g id="elql8n1u9v3la"><polygon points="180.57 305.04 186.05 257.99 190.1 305.19 212.21 263.29 198.93 308.76 234.68 277.68 205.88 315.29 250.44 299.23 210 323.89 257.36 325 210.74 333.39 254.49 351.54 207.99 342.52 242.24 375.25 202.13 350.04 222.24 392.93 193.95 354.94 197.21 402.2 184.55 356.55 170.52 401.79 175.21 354.65 145.78 391.77 167.18 349.51 126.33 373.5 161.55 341.82 114.8 349.43 159.08 332.61 112.74 322.81 160.11 323.13 120.43 297.25 164.49 314.67 136.83 276.2 171.63 308.35 159.74 262.5 180.57 305.04" style="fill: rgb(255, 255, 255); opacity: 0.8; transform-origin: 185.05px 330.095px;" class="animable" id="elmxby7czchx"></polygon></g><rect x="96.38" y="313.95" width="172.39" height="143.04" style="fill: #407BFF; transform-origin: 182.575px 385.47px;" id="el5p4ve273m4x" class="animable"></rect><path d="M263.2,321.19a2.38,2.38,0,1,1-3.35-.18A2.37,2.37,0,0,1,263.2,321.19Z" style="fill: rgb(224, 224, 224); transform-origin: 261.434px 322.784px;" id="elq9rior5wdh" class="animable"></path><path d="M263.2,321.19s-.18-.12-.5-.3a2.36,2.36,0,0,0-1.44-.3,2.25,2.25,0,0,0-1.71,1.18,2.15,2.15,0,0,0,2.69,3,2.22,2.22,0,0,0,1.35-1.57,2.38,2.38,0,0,0-.14-1.47c-.15-.34-.28-.5-.25-.53s.21.1.43.43a2.39,2.39,0,0,1,.32,1.63,2.54,2.54,0,0,1-1.53,1.95,2.6,2.6,0,0,1-3.29-3.65,2.54,2.54,0,0,1,2.1-1.32,2.39,2.39,0,0,1,1.59.49C263.12,321,263.23,321.17,263.2,321.19Z" style="fill: rgb(38, 50, 56); transform-origin: 261.394px 322.826px;" id="elxh6f526amqk" class="animable"></path><g id="elnpfia4aqslk"><rect x="113.71" y="331.12" width="137.69" height="108.29" style="opacity: 0.3; transform-origin: 182.555px 385.265px;" class="animable" id="elky08r9ahhwl"></rect></g><path d="M215.59,332.91c0,.14-13.48.26-30.1.26s-30.1-.12-30.1-.26,13.48-.26,30.1-.26S215.59,332.77,215.59,332.91Z" style="fill: rgb(255, 255, 255); transform-origin: 185.49px 332.91px;" id="elctu2i14f0qm" class="animable"></path><path d="M251.4,439.4s0-.68,0-2,0-3.25,0-5.78c0-5.06,0-12.48,0-21.93,0-18.9-.07-45.95-.11-78.58l.21.21-137.68.05h0l.26-.26c0,39.06,0,76,0,108.28l-.24-.23,99.44.12,28.19.06,7.47,0h2.59l-.63,0h-1.9l-7.43,0-28.13.06-99.6.12h-.23v-.24c0-32.29,0-69.22,0-108.28v-.26h.27l137.68,0h.22v.22c-.05,32.69-.09,59.78-.11,78.71,0,9.44,0,16.84-.06,21.89,0,2.5,0,4.43,0,5.73S251.4,439.4,251.4,439.4Z" style="fill: rgb(38, 50, 56); transform-origin: 182.695px 385.13px;" id="elqmxtrr09u" class="animable"></path><path d="M251.4,424.29c0,.14-30.83.26-68.85.26s-68.87-.12-68.87-.26,30.83-.26,68.87-.26S251.4,424.14,251.4,424.29Z" style="fill: rgb(38, 50, 56); transform-origin: 182.54px 424.29px;" id="elg3dm0bu4nov" class="animable"></path><path d="M251.4,408.06c0,.14-30.83.26-68.85.26s-68.87-.12-68.87-.26,30.83-.26,68.87-.26S251.4,407.92,251.4,408.06Z" style="fill: rgb(38, 50, 56); transform-origin: 182.54px 408.06px;" id="eloohr0e9v9c" class="animable"></path><path d="M251.4,391.83c0,.15-30.83.26-68.85.26s-68.87-.11-68.87-.26,30.83-.26,68.87-.26S251.4,391.69,251.4,391.83Z" style="fill: rgb(38, 50, 56); transform-origin: 182.54px 391.83px;" id="elijazaipou1o" class="animable"></path><path d="M251.4,375.61c0,.14-30.83.26-68.85.26s-68.87-.12-68.87-.26,30.83-.26,68.87-.26S251.4,375.46,251.4,375.61Z" style="fill: rgb(38, 50, 56); transform-origin: 182.54px 375.61px;" id="elfcp254zwk7j" class="animable"></path><path d="M251.4,359.38c0,.14-30.83.26-68.85.26s-68.87-.12-68.87-.26,30.83-.26,68.87-.26S251.4,359.24,251.4,359.38Z" style="fill: rgb(38, 50, 56); transform-origin: 182.54px 359.38px;" id="eldzffl48mq8" class="animable"></path><path d="M251.4,343.15c0,.15-30.83.26-68.85.26s-68.87-.11-68.87-.26,30.83-.26,68.87-.26S251.4,343,251.4,343.15Z" style="fill: rgb(38, 50, 56); transform-origin: 182.54px 343.15px;" id="elo6nel05g7m" class="animable"></path><path d="M179.58,344.58c0,.14-7.85.26-17.53.26s-17.53-.12-17.53-.26,7.85-.26,17.53-.26S179.58,344.43,179.58,344.58Z" style="fill: rgb(255, 255, 255); transform-origin: 162.05px 344.58px;" id="eluhizas1whcr" class="animable"></path><path d="M197.1,344.58a22.36,22.36,0,0,1-6.8,0,22.36,22.36,0,0,1,6.8,0Z" style="fill: rgb(255, 255, 255); transform-origin: 193.7px 344.58px;" id="el5jqvfvgm3bu" class="animable"></path><path d="M213.32,361.58c0,.14-7.15.26-16,.26s-16-.12-16-.26,7.14-.26,16-.26S213.32,361.44,213.32,361.58Z" style="fill: rgb(255, 255, 255); transform-origin: 197.32px 361.58px;" id="elj70bk6yaub" class="animable"></path><path d="M184.81,377.54c0,.14-4.92.26-11,.26s-11-.12-11-.26,4.92-.26,11-.26S184.81,377.39,184.81,377.54Z" style="fill: rgb(255, 255, 255); transform-origin: 173.81px 377.54px;" id="elcm5ng37sszo" class="animable"></path><path d="M194.49,393.23a34.36,34.36,0,0,1-6,.26,34.36,34.36,0,0,1-6-.26,35.56,35.56,0,0,1,6-.26A35.56,35.56,0,0,1,194.49,393.23Z" style="fill: rgb(255, 255, 255); transform-origin: 188.49px 393.232px;" id="elx9ybj3e69p" class="animable"></path><path d="M105.84,417.52a2.38,2.38,0,1,1,.17-3.36A2.38,2.38,0,0,1,105.84,417.52Z" style="fill: rgb(224, 224, 224); transform-origin: 104.243px 415.755px;" id="elyeip133mj4p" class="animable"></path><path d="M105.84,417.52s.11-.18.29-.5a2.38,2.38,0,0,0,.3-1.45,2.2,2.2,0,0,0-1.18-1.7,2.14,2.14,0,0,0-3,2.68,2.2,2.2,0,0,0,1.57,1.36,2.39,2.39,0,0,0,1.47-.15c.33-.14.5-.27.53-.24s-.11.21-.44.42a2.36,2.36,0,0,1-1.63.33,2.57,2.57,0,0,1-2-1.54,2.61,2.61,0,0,1,3.66-3.29,2.57,2.57,0,0,1,1.32,2.1,2.35,2.35,0,0,1-.5,1.59C106.05,417.44,105.85,417.54,105.84,417.52Z" style="fill: rgb(38, 50, 56); transform-origin: 104.143px 415.711px;" id="elm66amalxego" class="animable"></path><path d="M105.84,447.37A2.38,2.38,0,1,1,106,444,2.38,2.38,0,0,1,105.84,447.37Z" style="fill: rgb(224, 224, 224); transform-origin: 104.243px 445.605px;" id="eln8v487h5krc" class="animable"></path><path d="M105.84,447.37s.11-.18.29-.5a2.36,2.36,0,0,0,.3-1.44,2.2,2.2,0,0,0-1.18-1.71,2.14,2.14,0,0,0-3,2.69,2.2,2.2,0,0,0,1.57,1.35,2.4,2.4,0,0,0,1.47-.14c.33-.15.5-.28.53-.25s-.11.21-.44.43a2.36,2.36,0,0,1-1.63.32,2.58,2.58,0,0,1-2-1.53,2.61,2.61,0,0,1,3.66-3.29,2.57,2.57,0,0,1,1.32,2.1,2.38,2.38,0,0,1-.5,1.59C106.05,447.29,105.85,447.4,105.84,447.37Z" style="fill: rgb(38, 50, 56); transform-origin: 104.143px 445.567px;" id="elf94ixsn1pi" class="animable"></path><path d="M106.58,382.17a2.38,2.38,0,1,1,.18-3.36A2.36,2.36,0,0,1,106.58,382.17Z" style="fill: rgb(224, 224, 224); transform-origin: 104.993px 380.4px;" id="ele6s2k1yh83r" class="animable"></path><path d="M106.58,382.17s.12-.19.3-.5a2.38,2.38,0,0,0,.3-1.45,2.2,2.2,0,0,0-1.18-1.7,2.15,2.15,0,0,0-3,2.68,2.21,2.21,0,0,0,1.58,1.35,2.4,2.4,0,0,0,1.47-.14c.33-.14.5-.27.52-.24s-.1.2-.43.42a2.36,2.36,0,0,1-1.63.33,2.54,2.54,0,0,1-2-1.54,2.6,2.6,0,0,1,3.65-3.29,2.54,2.54,0,0,1,1.32,2.1,2.35,2.35,0,0,1-.49,1.59C106.8,382.09,106.6,382.19,106.58,382.17Z" style="fill: rgb(38, 50, 56); transform-origin: 104.895px 380.358px;" id="ele5ytni7dbgk" class="animable"></path><path d="M106.58,352.08a2.38,2.38,0,1,1,.18-3.36A2.36,2.36,0,0,1,106.58,352.08Z" style="fill: rgb(224, 224, 224); transform-origin: 104.993px 350.31px;" id="elm4fnokd6mrh" class="animable"></path><path d="M106.58,352.08s.12-.18.3-.5a2.38,2.38,0,0,0,.3-1.45,2.2,2.2,0,0,0-1.18-1.7,2.15,2.15,0,0,0-3,2.69,2.24,2.24,0,0,0,1.58,1.35,2.32,2.32,0,0,0,1.47-.15c.33-.14.5-.27.52-.24s-.1.21-.43.42a2.36,2.36,0,0,1-1.63.33,2.54,2.54,0,0,1-2-1.53,2.6,2.6,0,0,1,3.65-3.29,2.53,2.53,0,0,1,1.32,2.09,2.35,2.35,0,0,1-.49,1.59C106.8,352,106.6,352.1,106.58,352.08Z" style="fill: rgb(38, 50, 56); transform-origin: 104.895px 350.273px;" id="elb20ebsauh1" class="animable"></path><path d="M106.58,325.85a2.38,2.38,0,1,1,.18-3.36A2.38,2.38,0,0,1,106.58,325.85Z" style="fill: rgb(224, 224, 224); transform-origin: 104.989px 324.08px;" id="el2si1ut7b4in" class="animable"></path><path d="M106.58,325.85s.12-.19.3-.5a2.41,2.41,0,0,0,.3-1.45,2.2,2.2,0,0,0-1.18-1.71,2.15,2.15,0,0,0-3,2.69,2.21,2.21,0,0,0,1.58,1.35,2.4,2.4,0,0,0,1.47-.14c.33-.15.5-.28.52-.24s-.1.2-.43.42a2.36,2.36,0,0,1-1.63.32,2.52,2.52,0,0,1-2-1.53,2.6,2.6,0,0,1,3.65-3.29,2.54,2.54,0,0,1,1.32,2.1,2.37,2.37,0,0,1-.49,1.59C106.8,325.77,106.6,325.87,106.58,325.85Z" style="fill: rgb(38, 50, 56); transform-origin: 104.894px 324.035px;" id="elea9icx5yudh" class="animable"></path><path d="M224.47,447.75a2.38,2.38,0,1,1-3.36-.18A2.38,2.38,0,0,1,224.47,447.75Z" style="fill: rgb(224, 224, 224); transform-origin: 222.7px 449.341px;" id="elreo9l9gzom" class="animable"></path><path d="M224.47,447.75s-.19-.12-.5-.3a2.38,2.38,0,0,0-1.45-.29,2.17,2.17,0,0,0-1.39,3.6,2.16,2.16,0,0,0,2.37.56,2.2,2.2,0,0,0,1.35-1.57,2.39,2.39,0,0,0-.14-1.47c-.14-.33-.28-.5-.24-.53s.2.1.42.43a2.35,2.35,0,0,1,.32,1.64,2.53,2.53,0,0,1-1.53,1.94,2.6,2.6,0,0,1-3.29-3.65,2.54,2.54,0,0,1,2.1-1.32,2.42,2.42,0,0,1,1.59.49C224.39,447.53,224.49,447.73,224.47,447.75Z" style="fill: rgb(38, 50, 56); transform-origin: 222.655px 449.376px;" id="elk19943oh11c" class="animable"></path><path d="M261.5,447.75a2.38,2.38,0,1,1-3.35-.18A2.38,2.38,0,0,1,261.5,447.75Z" style="fill: rgb(224, 224, 224); transform-origin: 259.734px 449.346px;" id="elxiqxny6axx" class="animable"></path><path d="M261.5,447.75s-.18-.12-.5-.3a2.37,2.37,0,0,0-1.44-.29,2.2,2.2,0,0,0-1.71,1.18,2.14,2.14,0,0,0,2.69,3,2.22,2.22,0,0,0,1.35-1.57,2.39,2.39,0,0,0-.14-1.47c-.15-.33-.28-.5-.25-.53s.21.1.43.43a2.41,2.41,0,0,1,.32,1.64,2.53,2.53,0,0,1-1.53,1.94,2.6,2.6,0,0,1-3.29-3.65,2.54,2.54,0,0,1,2.1-1.32,2.42,2.42,0,0,1,1.59.49C261.42,447.53,261.53,447.73,261.5,447.75Z" style="fill: rgb(38, 50, 56); transform-origin: 259.694px 449.396px;" id="elxaznb3ckxm" class="animable"></path><path d="M261.5,415.75a2.38,2.38,0,1,1-3.35-.17A2.38,2.38,0,0,1,261.5,415.75Z" style="fill: rgb(224, 224, 224); transform-origin: 259.739px 417.351px;" id="eldeud9cbxd1f" class="animable"></path><path d="M261.5,415.75s-.18-.12-.5-.3a2.44,2.44,0,0,0-1.44-.29,2.2,2.2,0,0,0-1.71,1.18,2.14,2.14,0,0,0,2.69,3,2.2,2.2,0,0,0,1.35-1.57,2.4,2.4,0,0,0-.14-1.47c-.15-.33-.28-.5-.25-.53s.21.1.43.44a2.36,2.36,0,0,1,.32,1.63,2.55,2.55,0,0,1-1.53,1.95,2.61,2.61,0,0,1-3.29-3.66,2.54,2.54,0,0,1,2.1-1.32,2.36,2.36,0,0,1,1.59.5C261.42,415.54,261.53,415.73,261.5,415.75Z" style="fill: rgb(38, 50, 56); transform-origin: 259.697px 417.397px;" id="elnod0cc1ob0s" class="animable"></path><path d="M261.5,383.75a2.38,2.38,0,1,1-3.35-.17A2.38,2.38,0,0,1,261.5,383.75Z" style="fill: rgb(224, 224, 224); transform-origin: 259.739px 385.351px;" id="elntnuqrk21z" class="animable"></path><path d="M261.5,383.75s-.18-.11-.5-.29a2.36,2.36,0,0,0-1.44-.3,2.2,2.2,0,0,0-1.71,1.18,2.14,2.14,0,0,0,2.69,3,2.2,2.2,0,0,0,1.35-1.57,2.4,2.4,0,0,0-.14-1.47c-.15-.33-.28-.5-.25-.53s.21.11.43.44a2.36,2.36,0,0,1,.32,1.63,2.54,2.54,0,0,1-1.53,1.95,2.61,2.61,0,0,1-3.29-3.66,2.59,2.59,0,0,1,2.1-1.32,2.36,2.36,0,0,1,1.59.5C261.42,383.54,261.53,383.74,261.5,383.75Z" style="fill: rgb(38, 50, 56); transform-origin: 259.697px 385.397px;" id="elqhmjov21j7" class="animable"></path><path d="M261.5,351.76a2.38,2.38,0,1,1-3.35-.18A2.38,2.38,0,0,1,261.5,351.76Z" style="fill: rgb(224, 224, 224); transform-origin: 259.734px 353.356px;" id="elq57gq314gfg" class="animable"></path><path d="M261.5,351.76s-.18-.12-.5-.3a2.36,2.36,0,0,0-1.44-.3,2.25,2.25,0,0,0-1.71,1.18,2.15,2.15,0,0,0,2.69,3,2.22,2.22,0,0,0,1.35-1.57,2.38,2.38,0,0,0-.14-1.47c-.15-.34-.28-.5-.25-.53s.21.1.43.43a2.39,2.39,0,0,1,.32,1.63,2.52,2.52,0,0,1-1.53,1.95,2.6,2.6,0,0,1-3.29-3.65,2.54,2.54,0,0,1,2.1-1.32,2.37,2.37,0,0,1,1.59.49C261.42,351.54,261.53,351.74,261.5,351.76Z" style="fill: rgb(38, 50, 56); transform-origin: 259.694px 353.396px;" id="el689dfuxvxdi" class="animable"></path><path d="M234.09,321.39a2.38,2.38,0,1,1-3.36-.17A2.38,2.38,0,0,1,234.09,321.39Z" style="fill: rgb(224, 224, 224); transform-origin: 232.325px 322.987px;" id="elew00hfc4nba" class="animable"></path><path d="M234.09,321.39s-.18-.12-.5-.29a2.38,2.38,0,0,0-1.45-.3,2.2,2.2,0,0,0-1.7,1.18,2.14,2.14,0,0,0,2.68,3,2.2,2.2,0,0,0,1.36-1.57,2.39,2.39,0,0,0-.15-1.47c-.14-.33-.27-.5-.24-.53s.21.1.42.44a2.36,2.36,0,0,1,.33,1.63,2.57,2.57,0,0,1-1.54,2,2.61,2.61,0,0,1-3.29-3.66,2.57,2.57,0,0,1,2.1-1.32,2.35,2.35,0,0,1,1.59.5C234,321.18,234.11,321.38,234.09,321.39Z" style="fill: rgb(38, 50, 56); transform-origin: 232.281px 323.087px;" id="elv0cfpoqfmmq" class="animable"></path><path d="M203.43,321.39a2.38,2.38,0,1,1-3.36-.17A2.38,2.38,0,0,1,203.43,321.39Z" style="fill: rgb(224, 224, 224); transform-origin: 201.665px 322.987px;" id="eltf0go153ox" class="animable"></path><path d="M203.43,321.39s-.19-.12-.5-.29a2.4,2.4,0,0,0-1.45-.3,2.2,2.2,0,0,0-1.71,1.18,2.16,2.16,0,1,0,4,1.41,2.4,2.4,0,0,0-.14-1.47c-.15-.33-.28-.5-.24-.53s.2.1.42.44a2.36,2.36,0,0,1,.32,1.63,2.55,2.55,0,0,1-1.53,2,2.61,2.61,0,0,1-3.29-3.66,2.57,2.57,0,0,1,2.1-1.32,2.36,2.36,0,0,1,1.59.5C203.35,321.18,203.45,321.38,203.43,321.39Z" style="fill: rgb(38, 50, 56); transform-origin: 201.577px 323.067px;" id="elwkdr34rjr9l" class="animable"></path><path d="M171.17,321.39a2.38,2.38,0,1,1-3.54,3.18,2.38,2.38,0,0,1,3.54-3.18Z" style="fill: rgb(224, 224, 224); transform-origin: 169.439px 323.023px;" id="elm3a90vnqc2" class="animable"></path><path d="M171.17,321.39s-.19-.12-.5-.29a2.41,2.41,0,0,0-1.45-.3,2.2,2.2,0,0,0-1.71,1.18,2.16,2.16,0,1,0,4,1.41,2.4,2.4,0,0,0-.14-1.47c-.15-.33-.28-.5-.24-.53s.2.1.42.44a2.36,2.36,0,0,1,.32,1.63,2.55,2.55,0,0,1-1.53,2,2.61,2.61,0,0,1-3.29-3.66,2.57,2.57,0,0,1,2.1-1.32,2.36,2.36,0,0,1,1.59.5C171.09,321.18,171.19,321.38,171.17,321.39Z" style="fill: rgb(38, 50, 56); transform-origin: 169.317px 323.067px;" id="eltmeobvbszu" class="animable"></path><path d="M137.13,321.39a2.38,2.38,0,1,1-3.54,3.18,2.38,2.38,0,0,1,3.54-3.18Z" style="fill: rgb(224, 224, 224); transform-origin: 135.399px 323.023px;" id="elu80kawxuzc" class="animable"></path><path d="M137.13,321.39s-.19-.12-.5-.29a2.41,2.41,0,0,0-1.45-.3,2.2,2.2,0,0,0-1.71,1.18,2.16,2.16,0,1,0,4,1.41,2.4,2.4,0,0,0-.14-1.47c-.15-.33-.28-.5-.24-.53s.2.1.42.44a2.36,2.36,0,0,1,.32,1.63,2.55,2.55,0,0,1-1.53,2,2.61,2.61,0,0,1-3.29-3.66,2.57,2.57,0,0,1,2.1-1.32,2.36,2.36,0,0,1,1.59.5C137.05,321.18,137.15,321.38,137.13,321.39Z" style="fill: rgb(38, 50, 56); transform-origin: 135.277px 323.067px;" id="eln4pnxb4s90g" class="animable"></path><path d="M190,447.75a2.38,2.38,0,1,1-3.35-.18A2.38,2.38,0,0,1,190,447.75Z" style="fill: rgb(224, 224, 224); transform-origin: 188.234px 449.346px;" id="elms94y8t4ubj" class="animable"></path><path d="M190,447.75s-.18-.12-.5-.3a2.37,2.37,0,0,0-1.44-.29,2.2,2.2,0,0,0-1.71,1.18,2.14,2.14,0,0,0,2.69,3,2.22,2.22,0,0,0,1.35-1.57,2.39,2.39,0,0,0-.14-1.47c-.15-.33-.28-.5-.25-.53s.21.1.43.43a2.41,2.41,0,0,1,.32,1.64,2.53,2.53,0,0,1-1.53,1.94,2.6,2.6,0,0,1-3.29-3.65,2.54,2.54,0,0,1,2.1-1.32,2.42,2.42,0,0,1,1.59.49C189.92,447.53,190,447.73,190,447.75Z" style="fill: rgb(38, 50, 56); transform-origin: 188.194px 449.396px;" id="elmce9j0d6g6q" class="animable"></path><path d="M159.46,447.75a2.38,2.38,0,1,1-3.35-.18A2.38,2.38,0,0,1,159.46,447.75Z" style="fill: rgb(224, 224, 224); transform-origin: 157.694px 449.346px;" id="elmqyfm4p27tp" class="animable"></path><path d="M159.46,447.75s-.18-.12-.5-.3a2.37,2.37,0,0,0-1.44-.29,2.2,2.2,0,0,0-1.71,1.18,2.14,2.14,0,0,0,2.69,3,2.22,2.22,0,0,0,1.35-1.57,2.39,2.39,0,0,0-.14-1.47c-.15-.33-.28-.5-.25-.53s.21.1.43.43a2.41,2.41,0,0,1,.32,1.64,2.53,2.53,0,0,1-1.53,1.94,2.6,2.6,0,0,1-3.29-3.65,2.54,2.54,0,0,1,2.1-1.32,2.42,2.42,0,0,1,1.59.49C159.39,447.53,159.49,447.73,159.46,447.75Z" style="fill: rgb(38, 50, 56); transform-origin: 157.654px 449.396px;" id="eljszrxz8k4h" class="animable"></path><path d="M131.3,447a2.38,2.38,0,1,1-3.35-.17A2.38,2.38,0,0,1,131.3,447Z" style="fill: rgb(224, 224, 224); transform-origin: 129.539px 448.601px;" id="elmkewn0e9qdc" class="animable"></path><path d="M131.3,447s-.18-.12-.5-.3a2.37,2.37,0,0,0-1.44-.29,2.2,2.2,0,0,0-1.71,1.18,2.14,2.14,0,0,0,2.69,3,2.22,2.22,0,0,0,1.35-1.57,2.4,2.4,0,0,0-.14-1.47c-.15-.33-.28-.5-.25-.53s.21.1.43.44a2.36,2.36,0,0,1,.32,1.63,2.58,2.58,0,0,1-1.53,1.95,2.6,2.6,0,0,1-3.29-3.66,2.54,2.54,0,0,1,2.1-1.32,2.38,2.38,0,0,1,1.59.5C131.22,446.79,131.32,447,131.3,447Z" style="fill: rgb(38, 50, 56); transform-origin: 129.491px 448.653px;" id="elxfyof2cvc2" class="animable"></path><path d="M261.44,315c0,.14-35,.26-78.22.26S105,315.11,105,315s35-.26,78.23-.26S261.44,314.82,261.44,315Z" style="fill: rgb(255, 255, 255); transform-origin: 183.22px 315px;" id="elt0v7tc64gmn" class="animable"></path><path d="M187.66,157.13c-1.9,2-109,143-109,143L96.38,314,205.12,166.78Z" style="fill: #407BFF; transform-origin: 141.89px 235.565px;" id="elpo3foyb4cz" class="animable"></path><path d="M78.79,300.15s-11.57-56.81,20.32-97.47c39.55-50.41,88.72-45.42,88.72-45.42l.68,9.69Z" style="fill: #407BFF; transform-origin: 132.627px 228.637px;" id="el2oha40zwh5g" class="animable"></path><g id="elq1o0mxppde"><path d="M91.67,293.6l94.7-123.85s-44.46,1.87-72.66,38.76C82.07,249.91,91.67,293.6,91.67,293.6Z" style="opacity: 0.3; transform-origin: 138.335px 231.675px;" class="animable" id="elxsbghdxyhcp"></path></g><path d="M201.66,169.91s-.08.14-.24.39l-.75,1.11-2.91,4.25c-2.54,3.68-6.24,9-10.85,15.51-9.22,13.07-22.12,31-36.68,50.58s-28,37.09-37.88,49.68c-4.93,6.29-8.94,11.37-11.74,14.86l-3.23,4-.85,1c-.19.23-.3.34-.3.34s.08-.13.26-.37.47-.61.81-1.07l3.15-4.07,11.61-15c9.78-12.64,23.19-30.19,37.76-49.76S177.31,204,186.61,191c4.62-6.5,8.37-11.76,11-15.42l3-4.19c.33-.46.59-.82.79-1.08Z" style="fill: rgb(255, 255, 255); transform-origin: 148.945px 240.77px;" id="elvfjdak1yn1j" class="animable"></path><path d="M91.67,293.6l-.06-.21-.13-.62c-.11-.56-.25-1.39-.41-2.48a91.7,91.7,0,0,1-.82-9.61,113,113,0,0,1,4.44-35.09,112.62,112.62,0,0,1,16.62-34.19,94.39,94.39,0,0,1,9.23-11.17,97.55,97.55,0,0,1,24.81-18.59,111.39,111.39,0,0,1,31.47-10.91,82.65,82.65,0,0,1,9.54-1.24l.57,0-.35.46L91.67,293.6l94.5-124,.21.42a80.13,80.13,0,0,0-9.47,1.23,111.05,111.05,0,0,0-31.32,10.85,97.45,97.45,0,0,0-24.71,18.47,95.47,95.47,0,0,0-9.2,11.1,115,115,0,0,0-7.26,11.51A112.12,112.12,0,0,0,95,245.69a113.78,113.78,0,0,0-4.58,35,95.06,95.06,0,0,0,.72,9.61c.14,1.09.26,1.92.36,2.48l.1.63Z" style="fill: rgb(38, 50, 56); transform-origin: 138.562px 231.545px;" id="elc2hqy8f1eut" class="animable"></path><path d="M172.18,172c.11.09-18.13,23.48-40.73,52.24s-41,52-41.15,51.91,18.12-23.47,40.74-52.24S172.07,171.87,172.18,172Z" style="fill: rgb(38, 50, 56); transform-origin: 131.24px 224.075px;" id="elbcnn46jlin8" class="animable"></path><path d="M149.68,179.75c.11.09-12.21,15.67-27.53,34.8S94.33,249.11,94.22,249s12.21-15.67,27.53-34.8S149.57,179.66,149.68,179.75Z" style="fill: rgb(38, 50, 56); transform-origin: 121.95px 214.375px;" id="ellbuli3ict2" class="animable"></path><path d="M85.51,273.72a2.38,2.38,0,1,1-2.38-2.38A2.38,2.38,0,0,1,85.51,273.72Z" style="fill: rgb(224, 224, 224); transform-origin: 83.13px 273.72px;" id="elgiel757xef" class="animable"></path><path d="M85.51,273.72s-.06-.22-.17-.56a2.48,2.48,0,0,0-.88-1.19,2.24,2.24,0,0,0-2.06-.26,2.14,2.14,0,0,0,0,4,2.21,2.21,0,0,0,2.06-.26,2.44,2.44,0,0,0,.88-1.19c.11-.34.13-.55.17-.55s.08.21,0,.6a2.35,2.35,0,0,1-.85,1.43,2.51,2.51,0,0,1-2.44.42,2.6,2.6,0,0,1,0-4.91,2.54,2.54,0,0,1,2.44.42,2.37,2.37,0,0,1,.85,1.43C85.59,273.5,85.54,273.72,85.51,273.72Z" style="fill: rgb(38, 50, 56); transform-origin: 83.0162px 273.707px;" id="ells4uooz2v6p" class="animable"></path><path d="M89.89,240.79a2.38,2.38,0,1,1-2.38-2.38A2.37,2.37,0,0,1,89.89,240.79Z" style="fill: rgb(224, 224, 224); transform-origin: 87.51px 240.79px;" id="elahudfmcq2eb" class="animable"></path><path d="M89.89,240.79s-.06-.21-.17-.55a2.44,2.44,0,0,0-.88-1.19,2.21,2.21,0,0,0-2.06-.27,2.15,2.15,0,0,0,0,4,2.24,2.24,0,0,0,2.06-.26,2.48,2.48,0,0,0,.88-1.19c.11-.35.13-.56.17-.56s.08.22,0,.61a2.37,2.37,0,0,1-.85,1.43,2.54,2.54,0,0,1-2.44.42,2.6,2.6,0,0,1,0-4.92,2.54,2.54,0,0,1,2.44.43,2.32,2.32,0,0,1,.85,1.43C90,240.58,89.92,240.79,89.89,240.79Z" style="fill: rgb(38, 50, 56); transform-origin: 87.394px 240.771px;" id="el5bi8q0lcc8j" class="animable"></path><path d="M102.35,213.35a2.38,2.38,0,1,1,.17-3.35A2.38,2.38,0,0,1,102.35,213.35Z" style="fill: rgb(224, 224, 224); transform-origin: 100.749px 211.589px;" id="elch55ywcbryp" class="animable"></path><path d="M102.35,213.36s.12-.19.29-.51a2.36,2.36,0,0,0,.3-1.44,2.2,2.2,0,0,0-1.18-1.71,2.14,2.14,0,0,0-3,2.69,2.2,2.2,0,0,0,1.57,1.35,2.4,2.4,0,0,0,1.47-.14c.33-.15.5-.28.53-.24s-.1.2-.44.42a2.36,2.36,0,0,1-1.63.32,2.55,2.55,0,0,1-2-1.53,2.61,2.61,0,0,1,3.66-3.29,2.57,2.57,0,0,1,1.32,2.1,2.36,2.36,0,0,1-.5,1.59C102.56,213.28,102.36,213.38,102.35,213.36Z" style="fill: rgb(38, 50, 56); transform-origin: 100.653px 211.547px;" id="el2v7zd40tjdm" class="animable"></path><path d="M126.35,188.85a2.38,2.38,0,1,1,.18-3.35A2.38,2.38,0,0,1,126.35,188.85Z" style="fill: rgb(224, 224, 224); transform-origin: 124.754px 187.084px;" id="elj3xkxgw14wc" class="animable"></path><path d="M126.35,188.85s.12-.18.3-.5a2.3,2.3,0,0,0,.29-1.44,2.21,2.21,0,0,0-1.17-1.71,2.15,2.15,0,0,0-3,2.69,2.22,2.22,0,0,0,1.57,1.35,2.38,2.38,0,0,0,1.47-.14c.34-.15.5-.28.53-.25s-.1.21-.43.43a2.39,2.39,0,0,1-1.63.32,2.54,2.54,0,0,1-2-1.53,2.6,2.6,0,0,1,3.65-3.29,2.54,2.54,0,0,1,1.32,2.1,2.39,2.39,0,0,1-.49,1.59C126.57,188.77,126.37,188.88,126.35,188.85Z" style="fill: rgb(38, 50, 56); transform-origin: 124.664px 187.044px;" id="el8a1e6mg21z4" class="animable"></path><path d="M151.27,173.73a2.38,2.38,0,1,1,.18-3.36A2.38,2.38,0,0,1,151.27,173.73Z" style="fill: rgb(224, 224, 224); transform-origin: 149.679px 171.96px;" id="elbx2pdguk7mr" class="animable"></path><path d="M151.27,173.73s.12-.19.3-.5a2.38,2.38,0,0,0,.29-1.45,2.2,2.2,0,0,0-1.18-1.7,2.14,2.14,0,0,0-3,2.68,2.2,2.2,0,0,0,1.57,1.35,2.39,2.39,0,0,0,1.47-.14c.33-.14.5-.27.53-.24s-.1.2-.43.42a2.4,2.4,0,0,1-1.64.33,2.54,2.54,0,0,1-1.94-1.54,2.6,2.6,0,0,1,3.65-3.29,2.54,2.54,0,0,1,1.32,2.1,2.4,2.4,0,0,1-.49,1.59C151.49,173.65,151.29,173.75,151.27,173.73Z" style="fill: rgb(38, 50, 56); transform-origin: 149.624px 171.918px;" id="el6lndmnz93qg" class="animable"></path><path d="M179.05,165.32a2.38,2.38,0,1,1,.18-3.36A2.38,2.38,0,0,1,179.05,165.32Z" style="fill: rgb(224, 224, 224); transform-origin: 177.459px 163.55px;" id="elsrphnzwqs5f" class="animable"></path><path d="M179.05,165.32s.12-.19.3-.5a2.41,2.41,0,0,0,.3-1.45,2.25,2.25,0,0,0-1.18-1.71,2.15,2.15,0,0,0-3,2.69,2.2,2.2,0,0,0,1.57,1.35,2.38,2.38,0,0,0,1.47-.14c.34-.15.5-.28.53-.24s-.1.2-.43.42a2.39,2.39,0,0,1-1.63.32,2.52,2.52,0,0,1-2-1.53,2.6,2.6,0,0,1,3.65-3.29,2.54,2.54,0,0,1,1.32,2.1,2.37,2.37,0,0,1-.49,1.59C179.27,165.24,179.07,165.34,179.05,165.32Z" style="fill: rgb(38, 50, 56); transform-origin: 177.364px 163.504px;" id="elelfojqyx3bj" class="animable"></path><path d="M188,181.52a2.38,2.38,0,1,1,.18-3.36A2.38,2.38,0,0,1,188,181.52Z" style="fill: rgb(224, 224, 224); transform-origin: 186.409px 179.75px;" id="elyedj1kvpal" class="animable"></path><path d="M188,181.52s.12-.18.3-.5a2.38,2.38,0,0,0,.3-1.45,2.25,2.25,0,0,0-1.18-1.7,2.15,2.15,0,0,0-3,2.69,2.22,2.22,0,0,0,1.57,1.35,2.3,2.3,0,0,0,1.47-.15c.34-.14.5-.27.53-.24s-.1.21-.43.42a2.39,2.39,0,0,1-1.63.33,2.54,2.54,0,0,1-2-1.53,2.62,2.62,0,0,1,.66-3,2.59,2.59,0,0,1,3-.34,2.52,2.52,0,0,1,1.32,2.09,2.35,2.35,0,0,1-.49,1.59C188.18,181.44,188,181.54,188,181.52Z" style="fill: rgb(38, 50, 56); transform-origin: 186.314px 179.685px;" id="elpjw7gsla9bh" class="animable"></path><path d="M173.12,202a2.38,2.38,0,1,1,.18-3.36A2.38,2.38,0,0,1,173.12,202Z" style="fill: rgb(224, 224, 224); transform-origin: 171.529px 200.23px;" id="elyemlogcr1v" class="animable"></path><path d="M173.12,202s.12-.18.3-.5a2.38,2.38,0,0,0,.29-1.45,2.2,2.2,0,0,0-1.18-1.7,2.14,2.14,0,0,0-3,2.69,2.22,2.22,0,0,0,1.57,1.35,2.31,2.31,0,0,0,1.47-.15c.33-.14.5-.27.53-.24s-.1.21-.43.42a2.4,2.4,0,0,1-1.64.33,2.55,2.55,0,0,1-1.94-1.53,2.6,2.6,0,0,1,3.65-3.29,2.53,2.53,0,0,1,1.32,2.09,2.4,2.4,0,0,1-.49,1.59C173.34,201.88,173.14,202,173.12,202Z" style="fill: rgb(38, 50, 56); transform-origin: 171.474px 200.193px;" id="elcwb7488p0wk" class="animable"></path><path d="M155.1,225.46a2.38,2.38,0,1,1,.18-3.35A2.38,2.38,0,0,1,155.1,225.46Z" style="fill: rgb(224, 224, 224); transform-origin: 153.504px 223.694px;" id="elidvo4gqyju" class="animable"></path><path d="M155.1,225.46s.12-.18.3-.5a2.37,2.37,0,0,0,.29-1.44,2.2,2.2,0,0,0-1.18-1.71,2.14,2.14,0,0,0-3,2.69,2.22,2.22,0,0,0,1.57,1.35,2.39,2.39,0,0,0,1.47-.14c.33-.15.5-.28.53-.25s-.1.21-.43.43a2.41,2.41,0,0,1-1.64.32,2.55,2.55,0,0,1-1.94-1.53,2.6,2.6,0,0,1,.65-2.94,2.63,2.63,0,0,1,3-.35,2.54,2.54,0,0,1,1.32,2.1,2.44,2.44,0,0,1-.49,1.59C155.32,225.38,155.12,225.49,155.1,225.46Z" style="fill: rgb(38, 50, 56); transform-origin: 153.454px 223.657px;" id="elpxaa33hwd6h" class="animable"></path><path d="M132.09,256.87a2.38,2.38,0,1,1,.18-3.36A2.38,2.38,0,0,1,132.09,256.87Z" style="fill: rgb(224, 224, 224); transform-origin: 130.499px 255.1px;" id="elpyc0uec937h" class="animable"></path><path d="M132.09,256.87s.12-.19.3-.5a2.38,2.38,0,0,0,.29-1.45,2.21,2.21,0,0,0-1.17-1.7,2.14,2.14,0,0,0-3,2.68,2.2,2.2,0,0,0,1.57,1.35,2.38,2.38,0,0,0,1.47-.14c.34-.14.5-.27.53-.24s-.1.2-.43.42a2.4,2.4,0,0,1-1.64.33,2.54,2.54,0,0,1-1.94-1.54,2.6,2.6,0,0,1,3.65-3.29,2.54,2.54,0,0,1,1.32,2.1,2.35,2.35,0,0,1-.49,1.59C132.31,256.79,132.11,256.89,132.09,256.87Z" style="fill: rgb(38, 50, 56); transform-origin: 130.455px 255.058px;" id="el248n967y86b" class="animable"></path><path d="M109.72,285a2.38,2.38,0,1,1,.18-3.36A2.36,2.36,0,0,1,109.72,285Z" style="fill: rgb(224, 224, 224); transform-origin: 108.133px 283.23px;" id="elis1c7zjszn" class="animable"></path><path d="M109.72,285s.12-.19.3-.5a2.38,2.38,0,0,0,.3-1.45,2.2,2.2,0,0,0-1.18-1.7,2.15,2.15,0,0,0-3,2.68,2.21,2.21,0,0,0,1.58,1.35,2.4,2.4,0,0,0,1.47-.14c.33-.14.5-.27.52-.24s-.1.2-.43.42a2.36,2.36,0,0,1-1.63.33,2.54,2.54,0,0,1-2-1.54,2.6,2.6,0,0,1,3.65-3.29,2.54,2.54,0,0,1,1.32,2.1,2.35,2.35,0,0,1-.49,1.59C109.94,284.87,109.74,285,109.72,285Z" style="fill: rgb(38, 50, 56); transform-origin: 108.035px 283.188px;" id="el547elfkf9kk" class="animable"></path><path d="M136.54,199.23c.11.09-4.23,5.87-9.69,12.91s-10,12.69-10.1,12.6,4.22-5.87,9.69-12.92S136.42,199.15,136.54,199.23Z" style="fill: rgb(255, 255, 255); transform-origin: 126.645px 211.985px;" id="elrr01jp2a22l" class="animable"></path><path d="M143.23,191a9.68,9.68,0,0,1-1.73,2.62,9.53,9.53,0,0,1-2.14,2.29,18.7,18.7,0,0,1,3.87-4.91Z" style="fill: rgb(255, 255, 255); transform-origin: 141.295px 193.455px;" id="elc1qpr5hgimu" class="animable"></path><path d="M170.72,176.67c.11.09-4.47,5.94-10.23,13.07S150,202.57,149.86,202.48s4.47-5.94,10.23-13.07S170.6,176.58,170.72,176.67Z" style="fill: rgb(255, 255, 255); transform-origin: 160.289px 189.575px;" id="el6mrq60gv8xj" class="animable"></path><path d="M148.35,222.41c.11.09-5.66,7.48-12.88,16.51s-13.18,16.27-13.29,16.18,5.65-7.48,12.88-16.51S148.24,222.32,148.35,222.41Z" style="fill: rgb(255, 255, 255); transform-origin: 135.265px 238.755px;" id="elsu77b5pt0wm" class="animable"></path><path d="M114.22,204.62a7.18,7.18,0,0,1-.9,1c-.61.65-1.47,1.62-2.5,2.83a73.94,73.94,0,0,0-12.75,21.21c-.58,1.48-1,2.69-1.32,3.53a8,8,0,0,1-.51,1.29,7.42,7.42,0,0,1,.32-1.35c.23-.86.62-2.1,1.16-3.6a65.59,65.59,0,0,1,12.82-21.33c1.07-1.18,2-2.11,2.63-2.72A7.63,7.63,0,0,1,114.22,204.62Z" style="fill: rgb(255, 255, 255); transform-origin: 105.23px 219.55px;" id="elb3fsltdows7" class="animable"></path><polygon points="227.69 235.68 219.25 249.72 221.48 261.92 234.3 271.73 242.78 257.9 240.43 245.07 227.69 235.68" style="fill: #407BFF; transform-origin: 231.015px 253.705px;" id="el7dbuvx5hkir" class="animable"></polygon><g id="elc8ilo7m4yiq"><polygon points="229.09 243.45 224.6 250.28 226.25 259.25 232.89 264.06 237.7 257.1 236.05 248.13 229.09 243.45" style="fill: rgb(255, 255, 255); opacity: 0.3; transform-origin: 231.15px 253.755px;" class="animable" id="el9ov7knx6deh"></polygon></g><g id="eloij76mxndke"><polygon points="229.1 243.49 227.69 235.68 240.43 245.07 236.05 248.13 229.1 243.49" style="opacity: 0.2; transform-origin: 234.06px 241.905px;" class="animable" id="ellvej7gifkhh"></polygon></g><g id="eln2xk9qe01ys"><polygon points="232.89 264.06 234.3 271.73 221.48 261.92 226.25 259.25 232.89 264.06" style="opacity: 0.2; transform-origin: 227.89px 265.49px;" class="animable" id="elicvmhxo2tfi"></polygon></g><g id="elt8c36lviu4r"><polygon points="242.78 257.9 237.7 257.1 232.89 264.06 234.3 271.73 242.78 257.9" style="opacity: 0.2; transform-origin: 237.835px 264.415px;" class="animable" id="el0hb9q705h05c"></polygon></g><polygon points="225.58 255.61 234.24 246.9 236.05 248.13 236.38 249.89 227.07 259.85 226.25 259.25 225.58 255.61" style="fill: rgb(255, 255, 255); transform-origin: 230.98px 253.375px;" id="elsuav8uh1e9" class="animable"></polygon><path d="M232.89,264.06a29.49,29.49,0,0,1,1.41,7.67,29.49,29.49,0,0,1-1.41-7.67Z" style="fill: rgb(38, 50, 56); transform-origin: 233.595px 267.895px;" id="elxqlq077y6j" class="animable"></path><path d="M226.3,259.19a7.62,7.62,0,0,1-2.31,1.57,7.71,7.71,0,0,1-2.57,1.12,7.46,7.46,0,0,1,2.31-1.57A8,8,0,0,1,226.3,259.19Z" style="fill: rgb(38, 50, 56); transform-origin: 223.86px 260.535px;" id="elks2otjcwlis" class="animable"></path><path d="M219.25,249.72a14,14,0,0,1,5.35.56,6.84,6.84,0,0,1-2.7,0A7.09,7.09,0,0,1,219.25,249.72Z" style="fill: rgb(38, 50, 56); transform-origin: 221.925px 250.04px;" id="el8x4m1ytnjm3" class="animable"></path><path d="M227.69,235.68a15.54,15.54,0,0,1,1,3.86,15.39,15.39,0,0,1,.45,4,15.54,15.54,0,0,1-1-3.86A15.39,15.39,0,0,1,227.69,235.68Z" style="fill: rgb(38, 50, 56); transform-origin: 228.415px 239.61px;" id="eli01c37itw7c" class="animable"></path><path d="M229.09,243.45a2.6,2.6,0,0,1,.47.27l1.4.88,5.2,3.37.07,0v.08c.48,2.55,1.06,5.6,1.7,9l0,.1-.06.08L233.24,264l-.13.2-.16.22-.21-.16-6.64-4.83-.08-.05,0-.1c-.59-3.37-1.13-6.41-1.58-9l0-.08,0-.06,3.4-5,.92-1.32a3.47,3.47,0,0,1,.33-.42,4.61,4.61,0,0,1-.3.53l-.86,1.4-3.17,5,0-.14c.48,2.55,1.06,5.59,1.7,8.95l-.1-.15,6.65,4.8-.36.06.13-.19,4.68-6.76,0,.18c-.59-3.37-1.13-6.42-1.59-9l.09.13-5-3.48-1.38-1A3.35,3.35,0,0,1,229.09,243.45Z" style="fill: rgb(38, 50, 56); transform-origin: 231.185px 253.91px;" id="elwf7sf8wknd8" class="animable"></path><path d="M240.4,245.05c.08.12-.85.91-2.07,1.77a7.39,7.39,0,0,1-2.37,1.35c-.08-.12.84-.91,2.07-1.77A7,7,0,0,1,240.4,245.05Z" style="fill: rgb(38, 50, 56); transform-origin: 238.18px 246.61px;" id="els86uj3576h" class="animable"></path><path d="M242.78,257.9a8.08,8.08,0,0,1-2.6-.12,5.46,5.46,0,0,1-2.52-.64,8.37,8.37,0,0,1,2.59.12A5.89,5.89,0,0,1,242.78,257.9Z" style="fill: rgb(38, 50, 56); transform-origin: 240.22px 257.522px;" id="elih9mz540m3h" class="animable"></path><path d="M221.75,260.7a25.67,25.67,0,0,1-1.2-5.07,26.1,26.1,0,0,1-.68-5.17,26.11,26.11,0,0,1,1.19,5.07A26.61,26.61,0,0,1,221.75,260.7Z" style="fill: rgb(255, 255, 255); transform-origin: 220.81px 255.58px;" id="elx1duhe756on" class="animable"></path><path d="M226.66,238.36A47.27,47.27,0,0,1,220.14,249a50.31,50.31,0,0,1,3.17-5.35A52.64,52.64,0,0,1,226.66,238.36Z" style="fill: rgb(255, 255, 255); transform-origin: 223.4px 243.68px;" id="elor2toncwil8" class="animable"></path><polygon points="197.32 207.06 184.61 215.55 181.63 226.73 188.53 240.12 201.2 231.83 204.33 220.07 197.32 207.06" style="fill: #407BFF; transform-origin: 192.98px 223.59px;" id="elidhm34bdoz" class="animable"></polygon><g id="el67nzrhhyy5w"><polygon points="195.41 214.18 188.9 218.16 186.72 226.37 190.4 233.09 197.23 229.13 199.42 220.9 195.41 214.18" style="fill: rgb(255, 255, 255); opacity: 0.3; transform-origin: 193.07px 223.635px;" class="animable" id="el5hzqxxfkd35"></polygon></g><g id="elgtdxvq70gtb"><polygon points="195.4 214.21 197.32 207.06 204.33 220.07 199.42 220.9 195.4 214.21" style="opacity: 0.2; transform-origin: 199.865px 213.98px;" class="animable" id="el8rdptl6y9wx"></polygon></g><g id="el324a0wls3vu"><polygon points="190.4 233.09 188.53 240.12 181.63 226.73 186.72 226.37 190.4 233.09" style="opacity: 0.2; transform-origin: 186.015px 233.245px;" class="animable" id="elkooe0vg2q2"></polygon></g><g id="el8bouc2ljlk3"><polygon points="201.2 231.83 197.23 229.13 190.4 233.09 188.53 240.12 201.2 231.83" style="opacity: 0.2; transform-origin: 194.865px 234.625px;" class="animable" id="el49g88rcl7hd"></polygon></g><polygon points="187.6 223.04 198.38 219.14 199.42 220.9 198.99 222.51 187.17 227.21 186.72 226.37 187.6 223.04" style="fill: rgb(255, 255, 255); transform-origin: 193.07px 223.175px;" id="elnyr57rhb4zb" class="animable"></polygon><path d="M190.4,233.09a12.61,12.61,0,0,1-.68,3.58,13,13,0,0,1-1.19,3.45,26.22,26.22,0,0,1,1.87-7Z" style="fill: rgb(38, 50, 56); transform-origin: 189.465px 236.605px;" id="elca2vr7dmp66" class="animable"></path><path d="M186.78,226.35a13.11,13.11,0,0,1-5.19.32,6.85,6.85,0,0,1,2.58-.42A6.74,6.74,0,0,1,186.78,226.35Z" style="fill: rgb(38, 50, 56); transform-origin: 184.185px 226.481px;" id="elvmdqfel6wo" class="animable"></path><path d="M184.61,215.55a12.14,12.14,0,0,1,4.29,2.61,6.32,6.32,0,0,1-2.28-1.08C185.43,216.36,184.53,215.67,184.61,215.55Z" style="fill: rgb(38, 50, 56); transform-origin: 186.753px 216.855px;" id="elrbz777lnji9" class="animable"></path><path d="M197.32,207.07a25.51,25.51,0,0,1-1.92,7.14,13.93,13.93,0,0,1,.71-3.64A13.7,13.7,0,0,1,197.32,207.07Z" style="fill: rgb(38, 50, 56); transform-origin: 196.36px 210.64px;" id="elnwxrkb3ddwe" class="animable"></path><path d="M195.41,214.18a3.15,3.15,0,0,1,.29.42c.23.34.5.77.83,1.29l3.06,4.91,0,.07,0,.08-2.14,8.24,0,.1-.09.05-6.63,3.86-.2.11-.23.14-.12-.24-3.68-6.72-.05-.08,0-.1,2.24-8.2,0-.08.06,0,4.86-2.86,1.31-.74a1.9,1.9,0,0,1,.44-.22,5.08,5.08,0,0,1-.46.33l-1.29.84-4.66,3,.08-.11L187,226.44l0-.18,3.7,6.7-.36-.1.2-.11,6.64-3.84-.12.15,2.25-8.21,0,.15-2.82-4.92-.77-1.38A2.51,2.51,0,0,1,195.41,214.18Z" style="fill: rgb(38, 50, 56); transform-origin: 193.02px 223.815px;" id="elk1jsw264ft" class="animable"></path><path d="M204.31,220a12.51,12.51,0,0,1-5,.87,6.36,6.36,0,0,1,2.44-.69A6.45,6.45,0,0,1,204.31,220Z" style="fill: rgb(38, 50, 56); transform-origin: 201.81px 220.411px;" id="el1wsw03ftdzy" class="animable"></path><path d="M201.2,231.83a7,7,0,0,1-2.15-1.12c-1.14-.71-2-1.44-1.87-1.56a7,7,0,0,1,2.15,1.12C200.47,231,201.29,231.71,201.2,231.83Z" style="fill: rgb(38, 50, 56); transform-origin: 199.187px 230.49px;" id="eldhcgtete0dk" class="animable"></path><path d="M182.34,225.81a22.83,22.83,0,0,1,1-4.76,23.57,23.57,0,0,1,1.49-4.63,22.39,22.39,0,0,1-1,4.76A23.18,23.18,0,0,1,182.34,225.81Z" style="fill: rgb(255, 255, 255); transform-origin: 183.585px 221.115px;" id="elkqwyjekirz8" class="animable"></path><path d="M195.39,208.91a24.92,24.92,0,0,1-4.64,3.51,25.15,25.15,0,0,1-5.09,2.83,47.42,47.42,0,0,1,4.8-3.26A46.86,46.86,0,0,1,195.39,208.91Z" style="fill: rgb(255, 255, 255); transform-origin: 190.525px 212.08px;" id="el8hix6l5upi3" class="animable"></path></g><g id="freepik--Floor--inject-149" class="animable" style="transform-origin: 250px 457px;"><path d="M479.82,457c0,.14-102.9.26-229.81.26S20.18,457.13,20.18,457s102.88-.26,229.83-.26S479.82,456.85,479.82,457Z" style="fill: rgb(38, 50, 56); transform-origin: 250px 457px;" id="el4xfannj6k0i" class="animable"></path></g><g id="freepik--Character--inject-149" class="animable" style="transform-origin: 323.854px 293.595px;"><path d="M410.72,441.24,438,433.59s16.93,25.14,22.11,24.22l-12.94-53.4-43,10.18Z" style="fill: #407BFF; transform-origin: 432.14px 431.122px;" id="elgt1laioxc0h" class="animable"></path><g id="elcov2tkotzek"><g style="opacity: 0.6; transform-origin: 433.776px 417.685px;" class="animable" id="elr70lbd4ckvo"><path d="M431.67,417.64a2.25,2.25,0,0,1,2.13-2.11,2.15,2.15,0,0,1,2.11,2.08,2.39,2.39,0,0,1-2.26,2.23,2.24,2.24,0,0,1-2-2.42" style="fill: rgb(255, 255, 255); transform-origin: 433.776px 417.685px;" id="elbeh6i4pdyhe" class="animable"></path></g></g><g id="el5lp99ngfth"><g style="opacity: 0.6; transform-origin: 451.48px 431.175px;" class="animable" id="elaycly45z8eu"><path d="M447.16,404.41l-4.29,1.2,14,50.74s1.61,2.13,3.22,1.46Z" style="fill: rgb(255, 255, 255); transform-origin: 451.48px 431.175px;" id="elexn6ifj6anj" class="animable"></path></g></g><path d="M437.93,434.52c.26-.07.06-1.4.59-2.89s1.45-2.44,1.29-2.65-1.57.54-2.18,2.35S437.7,434.63,437.93,434.52Z" style="fill: rgb(38, 50, 56); transform-origin: 438.605px 431.736px;" id="el48xqf1m6e2s" class="animable"></path><path d="M441.6,439.56c.27,0,.44-1.24,1.33-2.39s2-1.69,1.91-1.95-1.59-.07-2.66,1.39S441.35,439.61,441.6,439.56Z" style="fill: rgb(38, 50, 56); transform-origin: 443.116px 437.342px;" id="elrrn3qrgbgel" class="animable"></path><path d="M449.07,441.11c0-.25-1.39-.29-2.65.72s-1.54,2.38-1.3,2.43.83-.88,1.88-1.7S449.11,441.38,449.07,441.11Z" style="fill: rgb(38, 50, 56); transform-origin: 447.056px 442.611px;" id="el2385bs8t9t7" class="animable"></path><path d="M431.52,435.57c.21-.16-.44-1.27-.7-2.77s-.07-2.76-.32-2.84-.92,1.25-.59,3S431.35,435.75,431.52,435.57Z" style="fill: rgb(38, 50, 56); transform-origin: 430.691px 432.773px;" id="el1h7e4ezgnpf" class="animable"></path><g id="elke2xy0hynk8"><g style="opacity: 0.3; transform-origin: 414.845px 425.95px;" class="animable" id="el86us52es75v"><polygon points="416.12 439.72 420.98 438.36 414.38 412.18 408.71 413.5 416.12 439.72" id="elt53gcxyiw" class="animable" style="transform-origin: 414.845px 425.95px;"></polygon></g></g><path d="M426,437a5.12,5.12,0,0,0-.66-2.67,11.94,11.94,0,0,0-1.54-2.59,12.17,12.17,0,0,0-1.19-1.34,3.22,3.22,0,0,0-.82-.66,1.18,1.18,0,0,0-1.42.22,1.5,1.5,0,0,0-.32,1.29,3.77,3.77,0,0,0,.39,1,9.19,9.19,0,0,0,1,1.52,9.57,9.57,0,0,0,2.22,2.07c1.44,1,2.52,1.15,2.55,1.05s-.91-.54-2.16-1.57a11.4,11.4,0,0,1-1.92-2.06,10.46,10.46,0,0,1-.85-1.42c-.28-.53-.4-1-.19-1.22s.12-.09.32,0a2.56,2.56,0,0,1,.6.48,14.4,14.4,0,0,1,1.15,1.22,14.85,14.85,0,0,1,1.62,2.34A17.86,17.86,0,0,0,426,437Z" style="fill: rgb(38, 50, 56); transform-origin: 423.113px 433.298px;" id="elifgardny5ks" class="animable"></path><path d="M426.28,436.59c0-.11-1-.4-2.75-.08a8.8,8.8,0,0,0-4.3,2.15,2.27,2.27,0,0,0-.94,2,1.31,1.31,0,0,0,1,.94,4.19,4.19,0,0,0,1.05,0,6.16,6.16,0,0,0,1.8-.43,6.39,6.39,0,0,0,2.48-1.81c1.14-1.38,1.18-2.55,1.09-2.55s-.44,1-1.57,2.1a6.31,6.31,0,0,1-2.31,1.45,5.28,5.28,0,0,1-1.56.33c-.58.05-1.09-.05-1.09-.27s.25-.82.65-1.15a9.3,9.3,0,0,1,1.29-1,10.22,10.22,0,0,1,2.54-1.16C425.23,436.7,426.28,436.74,426.28,436.59Z" style="fill: rgb(38, 50, 56); transform-origin: 422.282px 438.999px;" id="el8i1m8q03j8o" class="animable"></path><path d="M336.26,333.79s-50.93-9.37-67.37.77v57.27c18.19,9.8,43.85,26.28,43.85,26.28l25.19-39.53Z" style="fill: rgb(38, 50, 56); transform-origin: 303.41px 373.977px;" id="el9zmoobpb8dg" class="animable"></path><path d="M336.26,333.79l1.68,44.79s-28.68,41.26-33.53,48.92c-2.69,4.23-11.09,21.05-6,30.33s24,11.57,31.53,11.27,89.62-23.3,89.62-23.3l-8.64-35-37.35,7.3s29.89-22.36,33.66-29.75c3.33-6.54,6.83-26.18,6.95-26.61Z" style="fill: rgb(38, 50, 56); transform-origin: 358.182px 401.458px;" id="elhv8m8t740ic" class="animable"></path><path d="M327.93,391.53s-.49-.76-1.49-2a26.63,26.63,0,0,0-4.93-4.76,37.15,37.15,0,0,0-8.93-4.84,92.26,92.26,0,0,0-12-3.51c-4.34-1-8.43-2.11-12.22-2.8s-7.21-1.29-10.09-1.73-5.23-.72-6.85-.9l-1.87-.19a2.94,2.94,0,0,1-.65-.09,4.18,4.18,0,0,1,.66,0c.43,0,1.06,0,1.88.09,1.63.11,4,.35,6.88.73s6.33.92,10.13,1.63,7.92,1.76,12.25,2.77a86.08,86.08,0,0,1,12.06,3.56,36.52,36.52,0,0,1,9,5,24.75,24.75,0,0,1,4.87,4.93c.47.67.82,1.2,1,1.58A2.79,2.79,0,0,1,327.93,391.53Z" style="fill: rgb(69, 90, 100); transform-origin: 298.415px 381.113px;" id="elslmomo4kz9k" class="animable"></path><path d="M412.34,370.68a4,4,0,0,1-.77-.05l-2.18-.24-7.9-1,.23-.17a44.17,44.17,0,0,1-5.6,16.19,49.76,49.76,0,0,1-3.17,4.72,46.16,46.16,0,0,1-3.47,4,27.6,27.6,0,0,0-3.24,3.43,11.9,11.9,0,0,0-1.66,3.71,12.47,12.47,0,0,0-.38,3.35c0,1-.06,1.89-.12,2.59s-.14,1.26-.2,1.63a2.92,2.92,0,0,1-.12.56,2.47,2.47,0,0,1,0-.57c0-.43.07-1,.11-1.63s.05-1.57,0-2.58a13,13,0,0,1,.32-3.44,11.73,11.73,0,0,1,1.67-3.86,11,11,0,0,1,1.51-1.8c.57-.57,1.16-1.12,1.74-1.73a48.91,48.91,0,0,0,3.41-4,54.34,54.34,0,0,0,3.12-4.68,45.22,45.22,0,0,0,5.64-16l0-.2.2,0,7.88,1.15,2.16.35A3.8,3.8,0,0,1,412.34,370.68Z" style="fill: rgb(69, 90, 100); transform-origin: 398.042px 389.155px;" id="elwrodu9qq3ln" class="animable"></path><path d="M381.93,411.58a2.2,2.2,0,0,1-.46.38l-1.39,1c-1.21.87-3,2.09-5.2,3.57L357.47,428c-3.42,2.23-6.86,4-9.86,5.86a38,38,0,0,0-7.41,5.59,16.59,16.59,0,0,0-3.52,5.13c-.58,1.36-.77,2.17-.83,2.15a2.87,2.87,0,0,1,.12-.59,11,11,0,0,1,.52-1.64,15.94,15.94,0,0,1,3.45-5.3,36.18,36.18,0,0,1,7.42-5.75c3-1.87,6.44-3.67,9.83-5.88,6.77-4.51,13-8.43,17.48-11.31l5.3-3.44,1.44-.93A3,3,0,0,1,381.93,411.58Z" style="fill: rgb(69, 90, 100); transform-origin: 358.89px 429.155px;" id="elzvie0ebvc3p" class="animable"></path><path d="M337.94,377.15a2.41,2.41,0,0,1-.28.54c-.24.39-.54.88-.9,1.49l-3.38,5.43-11.32,17.81-11.4,17.76-3.48,5.37-.95,1.46a2.36,2.36,0,0,1-.36.49,3.24,3.24,0,0,1,.27-.55c.19-.35.48-.86.87-1.51.77-1.3,1.91-3.16,3.34-5.45,2.85-4.59,6.84-10.9,11.27-17.85s8.49-13.21,11.45-17.73c1.45-2.21,2.65-4,3.52-5.34l1-1.44A2.68,2.68,0,0,1,337.94,377.15Z" style="fill: rgb(69, 90, 100); transform-origin: 321.905px 402.325px;" id="elw48z410n1ta" class="animable"></path><path d="M337.36,336.92s.11.07.29.24a8.3,8.3,0,0,1,.75.81,12.43,12.43,0,0,1,2,3.52,12.86,12.86,0,0,1,.69,6c-.27,2.28-1.3,4.57-1.87,7.06a39.65,39.65,0,0,0-.33,13.09c.19,1.6.35,2.94.47,4a7.25,7.25,0,0,1,.13,1.47,7.91,7.91,0,0,1-.33-1.44c-.17-.93-.41-2.29-.64-4a37.33,37.33,0,0,1,.19-13.25c.59-2.55,1.62-4.82,1.9-7a12.78,12.78,0,0,0-.56-5.77A15.52,15.52,0,0,0,337.36,336.92Z" style="fill: rgb(69, 90, 100); transform-origin: 339.273px 355.015px;" id="el18m387x0z0l" class="animable"></path><path d="M214.71,184.34s32,59.66,39,61.93,75.54,6.34,75.54,6.34l4.32-37.22-67.69,4.33-39-44.37Z" style="fill: rgb(183, 136, 118); transform-origin: 274.14px 213.98px;" id="el2qtsnpilc82" class="animable"></path><path d="M332.29,212.42l-4.16,1.25L325,251.39l6.5,45.3L330,348.74s68.1,22.69,79.54,18.26c8-3.1,6.56-15.9,6.56-15.9l-12.65-86-2-15.24a73.52,73.52,0,0,0-13.73-34.27c-4.41-6-9.49-11.54-14.18-13.63l-8.95-2.62Z" style="fill: rgb(69, 90, 100); transform-origin: 370.6px 283.457px;" id="el2ezzdlp9g5y" class="animable"></path><polygon points="328.13 213.67 296.5 216.59 296.5 252.62 326.55 255.73 328.13 213.67" style="fill: rgb(69, 90, 100); transform-origin: 312.315px 234.7px;" id="el1846w6svffu" class="animable"></polygon><path d="M331.61,297.62c-.14,0-2.43-17.35-5.12-38.77S321.75,220,321.89,220s2.43,17.34,5.12,38.77S331.75,297.6,331.61,297.62Z" style="fill: rgb(38, 50, 56); transform-origin: 326.75px 258.81px;" id="elv369ok3765h" class="animable"></path><path d="M295.47,248.28h-.28l-.8-.05-3.07-.25c-2.68-.22-6.54-.58-11.31-1s-10.45-1-16.74-1.81c-1.58-.19-3.19-.41-4.83-.64-.82-.14-1.65-.24-2.49-.4-.42-.1-.84-.15-1.27-.27l-.67-.21a2.32,2.32,0,0,1-.54-.49c-1.13-1.35-2.09-2.81-3.11-4.27l-3-4.51c-8-12.25-15-23.5-20-31.64L221.36,193l-1.59-2.65-.4-.69c-.09-.16-.13-.24-.12-.25a1.57,1.57,0,0,1,.17.22l.44.67,1.67,2.59,6.08,9.59c5.14,8.09,12.17,19.32,20.17,31.55l3,4.5c1,1.46,2,2.94,3.06,4.23a1.6,1.6,0,0,0,.41.38l.56.17c.38.11.82.17,1.22.26.82.17,1.66.27,2.47.41,1.64.23,3.25.46,4.82.65,6.28.8,12,1.4,16.72,1.93l11.29,1.21,3.06.35.8.1A.84.84,0,0,1,295.47,248.28Z" style="fill: rgb(255, 255, 255); transform-origin: 257.359px 218.845px;" id="el0lcdrgkw2dg" class="animable"></path><path d="M325,253.71c0,.14-6.18-.2-13.79-.77s-13.76-1.15-13.75-1.29,6.18.2,13.79.77S325,253.56,325,253.71Z" style="fill: rgb(255, 255, 255); transform-origin: 311.23px 252.68px;" id="eldoao5b4jq6" class="animable"></path><path d="M332.75,314a1.77,1.77,0,0,1,0-.55c0-.41.07-.93.12-1.59.12-1.44.31-3.45.53-6v0c0-3.23-.16-7.36-.54-12.08s-1-10-1.72-15.62c-1.34-9.83-2.8-18.71-3.68-25.16-.45-3.22-.78-5.83-1-7.64-.09-.87-.17-1.56-.22-2.09a3.1,3.1,0,0,1,0-.73,6.54,6.54,0,0,1,.14.72c.08.53.19,1.21.32,2.07.28,1.86.67,4.45,1.15,7.62,1,6.43,2.48,15.3,3.83,25.14.76,5.6,1.34,10.92,1.67,15.65s.42,8.88.4,12.12h0c-.29,2.5-.52,4.5-.69,5.94-.08.65-.15,1.17-.2,1.58A4.63,4.63,0,0,1,332.75,314Z" style="fill: rgb(255, 255, 255); transform-origin: 329.986px 278.27px;" id="elei102bmgrfa" class="animable"></path><path d="M351.85,140.66a12.45,12.45,0,0,0-1.63-10,27.33,27.33,0,0,0-10.42-8.21c-.35-.12,1,.49,0,0-.42-.2-1.39-1.86-1.72-2.21-1.69-1.78-2.63-2.14-3.42-2.15a15.72,15.72,0,0,0-3.36.17c-1.5.22-3.63,2-4.6,3.15a5.89,5.89,0,0,0-5.13-2.61,7.23,7.23,0,0,0-5.21,2.67,1,1,0,0,1-.5.39.92.92,0,0,1-.67-.25,5.13,5.13,0,0,0-5.28-.37,3.85,3.85,0,0,0-1.68,4.78,4.44,4.44,0,0,0-5.56,6.14c-1.34.12-2.86.33-3.64,1.43a5.45,5.45,0,0,0-.23,5,8.55,8.55,0,0,0,3.16,3.3c1.49.67,2.29-.28,3.92-.41,2.43-.19,5-.44,7-1.83" style="fill: rgb(38, 50, 56); transform-origin: 325.281px 130.096px;" id="elulmaucuwrn9" class="animable"></path><path d="M302.37,157.43A26.81,26.81,0,0,1,320.68,126l1.32-.41c14.57-3.55,25.73,6.83,28.88,21.48l14.34,54.54-31.33,16.28-4.53-15.58s-14.41,2.08-18.8-11.62C308.44,184.1,305.18,170.12,302.37,157.43Z" style="fill: rgb(183, 136, 118); transform-origin: 333.478px 171.39px;" id="elkd3wub4vutm" class="animable"></path><path d="M329.24,202.34a34.88,34.88,0,0,0,16.4-10.81s-1.2,11.2-15.3,14.18Z" style="fill: rgb(153, 80, 55); transform-origin: 337.44px 198.62px;" id="elqz6ksq4pjts" class="animable"></path><path d="M309,167.45a2.06,2.06,0,0,0,2.5,1.4,2,2,0,0,0,1.48-2.4,2.06,2.06,0,0,0-2.5-1.4A2,2,0,0,0,309,167.45Z" style="fill: rgb(38, 50, 56); transform-origin: 310.99px 166.95px;" id="elsgxprahay8" class="animable"></path><path d="M307.39,163.25c.33.18,1.48-1.38,3.59-2s4-.06,4.14-.39c.08-.15-.31-.54-1.14-.82a5.61,5.61,0,0,0-3.41,0,5.46,5.46,0,0,0-2.76,1.92C307.32,162.64,307.24,163.17,307.39,163.25Z" style="fill: rgb(38, 50, 56); transform-origin: 311.226px 161.519px;" id="el152wchg0zv9" class="animable"></path><path d="M329,162a2.05,2.05,0,0,0,2.5,1.4,2,2,0,0,0,1.48-2.4,2.06,2.06,0,0,0-2.5-1.4A2,2,0,0,0,329,162Z" style="fill: rgb(38, 50, 56); transform-origin: 330.99px 161.501px;" id="elgchbjigxu3" class="animable"></path><path d="M328.53,158c.32.18,1.47-1.38,3.59-2s4-.06,4.13-.39c.08-.15-.31-.54-1.14-.82a5.6,5.6,0,0,0-3.41,0,5.38,5.38,0,0,0-2.75,1.92C328.45,157.35,328.37,157.88,328.53,158Z" style="fill: rgb(38, 50, 56); transform-origin: 332.358px 156.269px;" id="elcn46ebz2yuk" class="animable"></path><path d="M325.43,175.29a15.09,15.09,0,0,0-3.62.44c-.56.11-1.1.16-1.31-.18a3,3,0,0,1-.13-1.71c.11-1.46.22-3,.34-4.6.42-6.53.54-11.84.28-11.85s-.82,5.27-1.24,11.8c-.09,1.6-.17,3.14-.25,4.6a3.19,3.19,0,0,0,.37,2.2,1.42,1.42,0,0,0,1.13.52,4.11,4.11,0,0,0,.95-.15A14.65,14.65,0,0,0,325.43,175.29Z" style="fill: rgb(38, 50, 56); transform-origin: 322.436px 166.95px;" id="elvfat1a70upq" class="animable"></path><path d="M325.12,150.19c.38.51,2.42-.38,5-.81s4.79-.35,5-1c.08-.29-.43-.73-1.41-1a8.44,8.44,0,0,0-3.95-.21,8.55,8.55,0,0,0-3.64,1.55C325.28,149.35,325,149.94,325.12,150.19Z" style="fill: rgb(38, 50, 56); transform-origin: 330.111px 148.686px;" id="elnpsm1vnhsz" class="animable"></path><path d="M304.5,155.59c.56.4,2.29-.48,4.48-.94s4.13-.47,4.46-1.07c.14-.28-.25-.72-1.16-1a7.47,7.47,0,0,0-3.82-.08,7.31,7.31,0,0,0-3.39,1.7C304.4,154.83,304.24,155.39,304.5,155.59Z" style="fill: rgb(38, 50, 56); transform-origin: 308.925px 153.991px;" id="el984jiqsmlri" class="animable"></path><path d="M351.93,157.91c.2-.17,8.59-5.69,11.18,3.8s-7.48,10.13-7.57,9.86S351.93,157.91,351.93,157.91Z" style="fill: rgb(183, 136, 118); transform-origin: 357.733px 163.888px;" id="elhrkztci6af" class="animable"></path><path d="M356.63,167.44s.2.07.51.12a1.73,1.73,0,0,0,1.25-.31c.9-.64,1.31-2.46.89-4.19a5.68,5.68,0,0,0-1.11-2.24,2,2,0,0,0-1.59-.93.87.87,0,0,0-.85.72c-.06.3,0,.47,0,.5s-.25-.1-.28-.51a1.13,1.13,0,0,1,.21-.7,1.31,1.31,0,0,1,.85-.49,2.39,2.39,0,0,1,2.13,1,5.75,5.75,0,0,1,1.29,2.49c.46,1.93,0,4-1.29,4.76a1.88,1.88,0,0,1-1.58.16C356.71,167.66,356.6,167.47,356.63,167.44Z" style="fill: rgb(153, 80, 55); transform-origin: 357.777px 163.664px;" id="elut8yzztblt" class="animable"></path><path d="M337.23,131.83l-5.87-2.6L317.26,136l-11.2.5-5.93,2.84c1.64,1.21.05-.6,1.87-3.11a32,32,0,0,1,15.81-11.81c6.37-2.06,21.77,1.76,27.75,4.76,4.78,2.4,5.69,5.46,5.69,5.46,2.14,4.91,1.06,11.56,1.45,16.89.2,2.76,1.45,10.89,1.45,10.89h0c-2.17.66-3.49-.82-3.82-3.06l-2.15-8.5a13.26,13.26,0,0,1-8.38-13.61C340.13,136.32,340.26,132.46,337.23,131.83Z" style="fill: rgb(38, 50, 56); transform-origin: 327.14px 143.207px;" id="el08d75pjhd0ca" class="animable"></path><path d="M339.84,133.48c-1.66-2.43-5.09-3.21-7.89-2.32a12.08,12.08,0,0,0-6.45,5.71,8.85,8.85,0,0,1-1.25,1.89,2.37,2.37,0,0,1-2.05.77c-.23-.05-.48-.14-.68,0a.72.72,0,0,0-.25.42,6.15,6.15,0,0,1-1.55,2.73,2.52,2.52,0,0,1-2.92.42,3.76,3.76,0,0,1-6.85-.82,3.55,3.55,0,0,1-3.82-.26,7.28,7.28,0,0,1-1.52-11.19,13.06,13.06,0,0,1,4.14-2.7,59.71,59.71,0,0,1,7.29-2.83,9.69,9.69,0,0,1,3.36-.61c1.58.09,3.13.89,4.69.61a7.48,7.48,0,0,0,2.72-1.32,11.8,11.8,0,0,1,4-1.87c2.83-.6,5.71.69,8.17,2.21a12,12,0,0,1,4.41,4.12,5.11,5.11,0,0,1-.26,5.72,2.54,2.54,0,0,1-2.1,1,1.5,1.5,0,0,1-1.36-1.64" style="fill: rgb(38, 50, 56); transform-origin: 323.393px 133.462px;" id="elygaj7gckg4" class="animable"></path><path d="M332.05,179.84a3.18,3.18,0,0,0-2.37-1.88,3.94,3.94,0,0,0-3.26,1.93,3.72,3.72,0,0,0,.37,2.18,7.27,7.27,0,0,0,1.17,2.22,2.5,2.5,0,0,0,2.21,1,2.89,2.89,0,0,0,2.05-2.3A4.71,4.71,0,0,0,332.05,179.84Z" style="fill: rgb(153, 80, 55); transform-origin: 329.4px 181.629px;" id="el3efuykm9qsf" class="animable"></path><path d="M330.4,185.18c0-.22.59-.48,1-1.4a4.05,4.05,0,0,0-.22-3.58,2.91,2.91,0,0,0-1.5-1.17,2.41,2.41,0,0,0-1.55,0c-.93.28-1.33.89-1.54.8s-.13-.26,0-.62a2.52,2.52,0,0,1,1.05-1.18,3.26,3.26,0,0,1,2.4-.39,3.94,3.94,0,0,1,2.43,1.7,4.52,4.52,0,0,1-.14,5,2.34,2.34,0,0,1-1.29.94C330.63,185.37,330.41,185.28,330.4,185.18Z" style="fill: rgb(38, 50, 56); transform-origin: 329.809px 181.439px;" id="el3a8uu8qqj0u" class="animable"></path><path d="M333.48,212.45a25.77,25.77,0,0,1-1.64-7.09,13,13,0,0,1,1.07,3.49A12.73,12.73,0,0,1,333.48,212.45Z" style="fill: rgb(255, 255, 255); transform-origin: 332.66px 208.905px;" id="elkqz0zsk8z4s" class="animable"></path><path d="M334.62,197.52s-.08.09-.26.23a8.56,8.56,0,0,1-.84.56,14.25,14.25,0,0,1-3.43,1.46,15.76,15.76,0,0,1-5.5.58,15.59,15.59,0,0,1-6.49-1.91,13.21,13.21,0,0,1-4.76-4.82,22.09,22.09,0,0,1-2.18-5.08,28.72,28.72,0,0,1-.84-3.62,5.89,5.89,0,0,1-.14-1.35c.1,0,.37,1.9,1.33,4.86a23.74,23.74,0,0,0,2.24,4.94,13,13,0,0,0,4.6,4.61,15.53,15.53,0,0,0,6.28,1.89,16.11,16.11,0,0,0,5.37-.45A22.7,22.7,0,0,0,334.62,197.52Z" style="fill: rgb(255, 255, 255); transform-origin: 322.4px 191.98px;" id="el2s3q1ihozl8" class="animable"></path><path d="M332.36,184.6c.13.06-.29,1-1.36,1.67a2.5,2.5,0,0,1-2.1.47c0-.15.9-.33,1.83-.91S332.24,184.52,332.36,184.6Z" style="fill: rgb(255, 255, 255); transform-origin: 330.641px 185.698px;" id="eliuj3fk0peoc" class="animable"></path><path d="M311.07,169.55c0,.14-.41.36-1,.29s-1-.39-.9-.51.48-.06,1,0S311,169.41,311.07,169.55Z" style="fill: rgb(255, 255, 255); transform-origin: 310.112px 169.557px;" id="el2aflssemyku" class="animable"></path><path d="M312.84,154.68a10.36,10.36,0,0,1-3.77,1.46,10.62,10.62,0,0,1-4,.44,31.1,31.1,0,0,1,3.9-.94A31.37,31.37,0,0,1,312.84,154.68Z" style="fill: rgb(255, 255, 255); transform-origin: 308.955px 155.647px;" id="elor6xwtnlpog" class="animable"></path><path d="M331.48,164c0,.13-.4.44-1,.47s-1.12-.22-1.08-.35.5-.14,1.05-.17S331.42,163.84,331.48,164Z" style="fill: rgb(255, 255, 255); transform-origin: 330.439px 164.188px;" id="el68h4fjp1kw8" class="animable"></path><path d="M335.27,150.4a25.57,25.57,0,0,1-9.48.85,34.23,34.23,0,0,1,4.74-.5A33.18,33.18,0,0,1,335.27,150.4Z" style="fill: rgb(255, 255, 255); transform-origin: 330.53px 150.886px;" id="el2jza5sve8sj" class="animable"></path><path d="M318,140.36s-.09.33-.47.79a4.84,4.84,0,0,1-2.08,1.42,4.75,4.75,0,0,1-3.73-.17,5.17,5.17,0,0,1-2.81-3.59l0-.2.41.17a6.28,6.28,0,0,1-4.39,1.06,5.87,5.87,0,0,1-3.31-1.59,5.69,5.69,0,0,1-1.4-2,2,2,0,0,1-.23-.87,8.24,8.24,0,0,0,1.87,2.63,5.78,5.78,0,0,0,3.13,1.39,6,6,0,0,0,4-1l.33-.23.08.4,0,.18a4.76,4.76,0,0,0,2.51,3.26,4.51,4.51,0,0,0,3.4.26,5.19,5.19,0,0,0,2-1.22C317.75,140.61,317.92,140.34,318,140.36Z" style="fill: rgb(255, 255, 255); transform-origin: 308.995px 139.126px;" id="elmlggz7kxbfr" class="animable"></path><path d="M191.51,157s-1.68,1.82,1.58,3.13c3.06,1.23,12.13,6.19,12.13,6.19h0a12.52,12.52,0,0,0-.56,3.87,2.6,2.6,0,0,0,1.32,2.27s-.52,5.52,2.47,8.62,8.66,3.73,8.66,3.73l11.35-7.27s-12.68-17.16-13.67-18.16c-.63-.63-3.33-2.8-5.11-3.24s-12.79-3.41-12.79-3.41l-9.25,1.34s-.52,3.05,2.12,3.05C192.84,157.12,191.51,157,191.51,157Z" style="fill: rgb(183, 136, 118); transform-origin: 208.029px 168.77px;" id="el56q299d0w27" class="animable"></path><path d="M212.86,174.71a11.39,11.39,0,0,1-1.44-2c-.84-1.27-2-3.05-3.17-5a5.1,5.1,0,0,0-1-1.26,1.85,1.85,0,0,0-1.21-.57,1,1,0,0,0-.29.07c-.05,0,0,0-.08,0l-.08.11a3.39,3.39,0,0,0-.29.57,8.59,8.59,0,0,0-.37,1.16,9.64,9.64,0,0,0-.3,1.73,2.21,2.21,0,0,0,0,.64s-.22-.19-.24-.63a7.61,7.61,0,0,1,.15-1.82,9.89,9.89,0,0,1,.33-1.23,3.13,3.13,0,0,1,.31-.68l.13-.17a.93.93,0,0,1,.22-.16,1.52,1.52,0,0,1,.43-.12,2.26,2.26,0,0,1,1.59.66,5.61,5.61,0,0,1,1.11,1.37c1.22,2,2.29,3.78,3,5.1A11.92,11.92,0,0,1,212.86,174.71Z" style="fill: rgb(153, 80, 55); transform-origin: 208.622px 170.03px;" id="elqavxqoocs59" class="animable"></path><path d="M212.1,163.89a19,19,0,0,1-2.41-2.27,6.88,6.88,0,0,0-2.87-1.9,16.15,16.15,0,0,0-2-.46c-.73-.14-1.47-.32-2.23-.51a49.29,49.29,0,0,0-7.76-1.64c-2-.21-3.27,0-3.28-.11a3.11,3.11,0,0,1,.87-.19,14.65,14.65,0,0,1,2.44-.07,39.9,39.9,0,0,1,7.86,1.5c.75.19,1.49.38,2.2.52a15.19,15.19,0,0,1,2.09.51,7,7,0,0,1,3,2.09A23.88,23.88,0,0,1,212.1,163.89Z" style="fill: rgb(153, 80, 55); transform-origin: 201.825px 160.304px;" id="elciwuv83dwkl" class="animable"></path><path d="M290.24,327.08l64.51-7.52.42-52.35,31.48-1.15s-2,55.16-2.18,64.5c-.08,6.36-8.14,14.53-15.08,16.12-3.39.78-75.16-.62-75.16-.62Z" style="fill: rgb(183, 136, 118); transform-origin: 338.445px 306.488px;" id="elgpi3y7mmu5g" class="animable"></path><path d="M383.24,216.66a13.51,13.51,0,0,0-17.19-1.27c-5.68,4-14.33,13.94-15.43,26.67-1.29,14.87,1.1,32.51,1.1,32.51l36.85-.16,7-27.76" style="fill: rgb(69, 90, 100); transform-origin: 372.904px 243.73px;" id="el7vpqqdxccbf" class="animable"></path><path d="M357.76,277.24a.89.89,0,0,1,0,.22l0,.65c0,.62,0,1.46.05,2.53,0,2.24,0,5.42.07,9.39,0,8,.06,19.17.09,31.88v.22l-.22,0c-3.37.5-6.87,1-10.46,1.47-15.13,2-28.89,3.27-38.86,4-5,.35-9,.56-11.82.7l-3.22.13-.84,0h-.28a.75.75,0,0,1,.28,0l.84-.08,3.21-.22,11.8-.87c10-.79,23.71-2.1,38.82-4.11,3.59-.47,7.09-1,10.46-1.47l-.22.26c0-12.71.07-23.86.09-31.88,0-4,.06-7.15.08-9.39,0-1.07,0-1.91,0-2.53l0-.65C357.74,277.31,357.75,277.24,357.76,277.24Z" style="fill: rgb(255, 255, 255); transform-origin: 325.12px 302.835px;" id="elicyehwfmpy" class="animable"></path><path d="M363,221.58s-.46.53-1.29,1.47a32.7,32.7,0,0,0-3.17,4.27,43.55,43.55,0,0,0-5.81,16.44,94.41,94.41,0,0,0-.67,17.56c.09,2.2.17,4,.22,5.34l.05,1.46a2.09,2.09,0,0,1,0,.51,1.85,1.85,0,0,1-.09-.51c0-.39-.08-.87-.14-1.44-.11-1.26-.26-3.09-.39-5.34a85.32,85.32,0,0,1,.52-17.66,41.9,41.9,0,0,1,6-16.55,29.31,29.31,0,0,1,3.33-4.22c.43-.46.81-.78,1.05-1S363,221.56,363,221.58Z" style="fill: rgb(255, 255, 255); transform-origin: 357.237px 245.104px;" id="el0vezo3wg7p29" class="animable"></path><path d="M274.5,309.18,287,319.69l7.62,10.38.94,15.65-15.13,2s-19.29-1.7-20.73-4.18.4-3.11.4-3.11-4.12-.69-7.37-1.44c-1.69-.39-3-3.93-1.34-4.09,4.61-.46,17.15-.09,17.49-.31s-16.53-5.62-18.39-6.72c-1.2-.7-1.56-3.22-.09-3.79s17.16,1.81,17.16,1.81l6.07-.47-7.26-4.16-10.2-3.7s-2.51-3.52,1-3.74,13.35,1.48,13.35,1.48l6,2.9S271.9,312.93,274.5,309.18Z" style="fill: rgb(183, 136, 118); transform-origin: 272.498px 328.45px;" id="eltem39t61sw" class="animable"></path><path d="M285.52,323a32.16,32.16,0,0,1-4.66-2.26,21.64,21.64,0,0,1-4.42-2.72,32.74,32.74,0,0,1,4.66,2.26A22.16,22.16,0,0,1,285.52,323Z" style="fill: rgb(153, 80, 55); transform-origin: 280.98px 320.51px;" id="elw912y78obp9" class="animable"></path><path d="M275.43,341.7a59.38,59.38,0,0,1-7.88-.4,60.75,60.75,0,0,1-7.84-.93,60.59,60.59,0,0,1,7.88.41A61.92,61.92,0,0,1,275.43,341.7Z" style="fill: rgb(153, 80, 55); transform-origin: 267.57px 341.036px;" id="elypwmdiiaqpc" class="animable"></path><path d="M351.89,261.33a4.65,4.65,0,0,1,.08.88l.12,2.55c.07,2.26.18,5.43.31,9.29l-.2-.2,22.23-.06,16.49,0-.22.2c.74-5.43,1.36-10,1.81-13.26.23-1.56.41-2.81.55-3.72.06-.4.12-.72.16-1a1.31,1.31,0,0,1,.08-.34,1.26,1.26,0,0,1,0,.34q0,.4-.09,1c-.1.93-.25,2.18-.42,3.75-.4,3.27-1,7.84-1.63,13.27l0,.2h-.21l-16.49,0-22.23-.06H352v-.19c-.06-3.87-.1-7-.14-9.3v-2.54A5,5,0,0,1,351.89,261.33Z" style="fill: rgb(38, 50, 56); transform-origin: 372.583px 264.95px;" id="el30j41q6su3s" class="animable"></path><path d="M388.43,227.54a15.39,15.39,0,0,0-2-3.35,14.93,14.93,0,0,0-7.9-4.76,32.47,32.47,0,0,0-9.4-.58c-2.43.14-3.93.27-3.94.19a3.84,3.84,0,0,1,1-.21c.68-.1,1.66-.23,2.87-.35a29.27,29.27,0,0,1,9.56.45,14.58,14.58,0,0,1,8.06,5,9.4,9.4,0,0,1,1.42,2.55A3.1,3.1,0,0,1,388.43,227.54Z" style="fill: rgb(38, 50, 56); transform-origin: 376.81px 222.91px;" id="eler0catke1j" class="animable"></path><path d="M364.63,372.68c0,.08-1.53,0-4,.07a66.13,66.13,0,0,0-9.55.91,67.35,67.35,0,0,0-9.32,2.3c-2.34.76-3.76,1.33-3.79,1.25a4.66,4.66,0,0,1,1-.5c.62-.29,1.55-.67,2.71-1.1a54.89,54.89,0,0,1,9.35-2.47,54.27,54.27,0,0,1,9.64-.76c1.24,0,2.24.07,2.93.14A4,4,0,0,1,364.63,372.68Z" style="fill: rgb(69, 90, 100); transform-origin: 351.3px 374.797px;" id="elt71pa91kjr" class="animable"></path></g><g id="freepik--speech-bubble--inject-149" class="animable animator-active" style="transform-origin: 415.489px 136.53px;"><path d="M379.57,170.81,386.31,157a35.72,35.72,0,1,1,9.13,9h0Z" style="fill: rgb(250, 250, 250); transform-origin: 415.417px 136.475px;" id="el0jn7fz1m3ekk" class="animable"></path><path d="M379.57,170.81l15.85-4.91-.06.21,0,0-.66-.76.83.57a35.62,35.62,0,0,0,17.44,6,32,32,0,0,0,5.61-.08c.95-.12,1.93-.21,2.91-.35l2.95-.65a35.63,35.63,0,0,0,26.2-29.51,36,36,0,0,0-1.4-15.62,34.76,34.76,0,0,0-8.43-14,35.36,35.36,0,0,0-14.15-8.84,35.81,35.81,0,0,0-15.91-1.46,34.71,34.71,0,0,0-14.22,5.15A35.9,35.9,0,0,0,381,128.14a38.58,38.58,0,0,0-.86,11.57A35.48,35.48,0,0,0,386.41,157l0,.06,0,.07c-4.35,8.72-6.45,12.94-6.85,13.73L386.19,157v.13a35.65,35.65,0,0,1-6.42-17.36,38.79,38.79,0,0,1,.83-11.7,36.23,36.23,0,0,1,15.64-21.88,35.33,35.33,0,0,1,14.41-5.25,36.45,36.45,0,0,1,16.15,1.47,35.93,35.93,0,0,1,14.35,9,35.16,35.16,0,0,1,8.55,14.21,36.34,36.34,0,0,1,1.4,15.84,35.53,35.53,0,0,1-5.18,14.16,36.05,36.05,0,0,1-21.41,15.68l-3,.64c-1,.15-2,.23-3,.35a32.65,32.65,0,0,1-5.67.06,35.63,35.63,0,0,1-17.55-6.17l.17-.19v0l.13.15-.19,0Z" style="fill: rgb(38, 50, 56); transform-origin: 415.489px 136.53px;" id="elijpzoupug7" class="animable"></path><path d="M410.25,121.09l1,16.52a2.69,2.69,0,0,0,2.52,2.51h0a2.69,2.69,0,0,0,2.83-2.38l1.83-16.61a2.11,2.11,0,0,0-2.12-2.34l-4,.06A2.11,2.11,0,0,0,410.25,121.09Z" style="fill: #407BFF; transform-origin: 414.344px 129.457px;" id="el7m66pgdxdj" class="animable"></path><path d="M418.19,149.41a4,4,0,1,1-2.56-5.09A4,4,0,0,1,418.19,149.41Z" style="fill: #407BFF; transform-origin: 414.401px 148.127px;" id="eljt14i3eebis" class="animable"></path></g><defs>     <filter id="active" height="200%">         <feMorphology in="SourceAlpha" result="DILATED" operator="dilate" radius="2"></feMorphology>                <feFlood flood-color="#32DFEC" flood-opacity="1" result="PINK"></feFlood>        <feComposite in="PINK" in2="DILATED" operator="in" result="OUTLINE"></feComposite>        <feMerge>            <feMergeNode in="OUTLINE"></feMergeNode>            <feMergeNode in="SourceGraphic"></feMergeNode>        </feMerge>    </filter>    <filter id="hover" height="200%">        <feMorphology in="SourceAlpha" result="DILATED" operator="dilate" radius="2"></feMorphology>                <feFlood flood-color="#ff0000" flood-opacity="0.5" result="PINK"></feFlood>        <feComposite in="PINK" in2="DILATED" operator="in" result="OUTLINE"></feComposite>        <feMerge>            <feMergeNode in="OUTLINE"></feMergeNode>            <feMergeNode in="SourceGraphic"></feMergeNode>        </feMerge>            <feColorMatrix type="matrix" values="0   0   0   0   0                0   1   0   0   0                0   0   0   0   0                0   0   0   1   0 "></feColorMatrix>    </filter></defs></svg>